%TF.GenerationSoftware,KiCad,Pcbnew,8.0.0*%
%TF.CreationDate,2024-03-10T03:07:15-05:00*%
%TF.ProjectId,Flashlight,466c6173-686c-4696-9768-742e6b696361,1.0*%
%TF.SameCoordinates,Original*%
%TF.FileFunction,Drillmap*%
%TF.FilePolarity,Positive*%
%FSLAX45Y45*%
G04 Gerber Fmt 4.5, Leading zero omitted, Abs format (unit mm)*
G04 Created by KiCad (PCBNEW 8.0.0) date 2024-03-10 03:07:15*
%MOMM*%
%LPD*%
G01*
G04 APERTURE LIST*
%ADD10C,0.100000*%
%ADD11C,0.200000*%
%ADD12C,0.110000*%
G04 APERTURE END LIST*
D10*
X12988000Y-6481000D02*
G75*
G02*
X9988000Y-6481000I-1500000J0D01*
G01*
X9988000Y-6481000D02*
G75*
G02*
X12988000Y-6481000I1500000J0D01*
G01*
D11*
D10*
X10587500Y-5787500D02*
X10612500Y-5812500D01*
X10612500Y-5787500D02*
X10587500Y-5812500D01*
X10677500Y-5807500D02*
X10702500Y-5832500D01*
X10702500Y-5807500D02*
X10677500Y-5832500D01*
X10677500Y-6447500D02*
X10702500Y-6472500D01*
X10702500Y-6447500D02*
X10677500Y-6472500D01*
X10717500Y-6487500D02*
X10742500Y-6512500D01*
X10742500Y-6487500D02*
X10717500Y-6512500D01*
X10757500Y-6447500D02*
X10782500Y-6472500D01*
X10782500Y-6447500D02*
X10757500Y-6472500D01*
X10767500Y-5787500D02*
X10792500Y-5812500D01*
X10792500Y-5787500D02*
X10767500Y-5812500D01*
X10797500Y-6487500D02*
X10822500Y-6512500D01*
X10822500Y-6487500D02*
X10797500Y-6512500D01*
X10837500Y-6447500D02*
X10862500Y-6472500D01*
X10862500Y-6447500D02*
X10837500Y-6472500D01*
X10877500Y-6487500D02*
X10902500Y-6512500D01*
X10902500Y-6487500D02*
X10877500Y-6512500D01*
X10907500Y-6807500D02*
X10932500Y-6832500D01*
X10932500Y-6807500D02*
X10907500Y-6832500D01*
X10907500Y-6987500D02*
X10932500Y-7012500D01*
X10932500Y-6987500D02*
X10907500Y-7012500D01*
X10927500Y-6897500D02*
X10952500Y-6922500D01*
X10952500Y-6897500D02*
X10927500Y-6922500D01*
X11057500Y-7247500D02*
X11082500Y-7272500D01*
X11082500Y-7247500D02*
X11057500Y-7272500D01*
X11057500Y-7317500D02*
X11082500Y-7342500D01*
X11082500Y-7317500D02*
X11057500Y-7342500D01*
X11162500Y-6792500D02*
X11187500Y-6817500D01*
X11187500Y-6792500D02*
X11162500Y-6817500D01*
X11297500Y-5557500D02*
X11322500Y-5582500D01*
X11322500Y-5557500D02*
X11297500Y-5582500D01*
X11297500Y-5617500D02*
X11322500Y-5642500D01*
X11322500Y-5617500D02*
X11297500Y-5642500D01*
X11337500Y-6847500D02*
X11362500Y-6872500D01*
X11362500Y-6847500D02*
X11337500Y-6872500D01*
X11337500Y-6992500D02*
X11362500Y-7017500D01*
X11362500Y-6992500D02*
X11337500Y-7017500D01*
X11347500Y-5587500D02*
X11372500Y-5612500D01*
X11372500Y-5587500D02*
X11347500Y-5612500D01*
X11397500Y-5557500D02*
X11422500Y-5582500D01*
X11422500Y-5557500D02*
X11397500Y-5582500D01*
X11397500Y-5617500D02*
X11422500Y-5642500D01*
X11422500Y-5617500D02*
X11397500Y-5642500D01*
X11397500Y-7347500D02*
X11422500Y-7372500D01*
X11422500Y-7347500D02*
X11397500Y-7372500D01*
X11447500Y-5587500D02*
X11472500Y-5612500D01*
X11472500Y-5587500D02*
X11447500Y-5612500D01*
X11447500Y-7317500D02*
X11472500Y-7342500D01*
X11472500Y-7317500D02*
X11447500Y-7342500D01*
X11447500Y-7377500D02*
X11472500Y-7402500D01*
X11472500Y-7377500D02*
X11447500Y-7402500D01*
X11497500Y-5557500D02*
X11522500Y-5582500D01*
X11522500Y-5557500D02*
X11497500Y-5582500D01*
X11497500Y-5617500D02*
X11522500Y-5642500D01*
X11522500Y-5617500D02*
X11497500Y-5642500D01*
X11497500Y-7347500D02*
X11522500Y-7372500D01*
X11522500Y-7347500D02*
X11497500Y-7372500D01*
X11547500Y-5587500D02*
X11572500Y-5612500D01*
X11572500Y-5587500D02*
X11547500Y-5612500D01*
X11547500Y-7317500D02*
X11572500Y-7342500D01*
X11572500Y-7317500D02*
X11547500Y-7342500D01*
X11547500Y-7377500D02*
X11572500Y-7402500D01*
X11572500Y-7377500D02*
X11547500Y-7402500D01*
X11597500Y-7347500D02*
X11622500Y-7372500D01*
X11622500Y-7347500D02*
X11597500Y-7372500D01*
X11647500Y-7317500D02*
X11672500Y-7342500D01*
X11672500Y-7317500D02*
X11647500Y-7342500D01*
X11647500Y-7377500D02*
X11672500Y-7402500D01*
X11672500Y-7377500D02*
X11647500Y-7402500D01*
X11687500Y-6111069D02*
X11712500Y-6136069D01*
X11712500Y-6111069D02*
X11687500Y-6136069D01*
X11687500Y-6217500D02*
X11712500Y-6242500D01*
X11712500Y-6217500D02*
X11687500Y-6242500D01*
X11757500Y-6507500D02*
X11782500Y-6532500D01*
X11782500Y-6507500D02*
X11757500Y-6532500D01*
X11827500Y-6507500D02*
X11852500Y-6532500D01*
X11852500Y-6507500D02*
X11827500Y-6532500D01*
X11887500Y-6987500D02*
X11912500Y-7012500D01*
X11912500Y-6987500D02*
X11887500Y-7012500D01*
X11927500Y-6867500D02*
X11952500Y-6892500D01*
X11952500Y-6867500D02*
X11927500Y-6892500D01*
X12077500Y-6447500D02*
X12102500Y-6472500D01*
X12102500Y-6447500D02*
X12077500Y-6472500D01*
X12117500Y-6487500D02*
X12142500Y-6512500D01*
X12142500Y-6487500D02*
X12117500Y-6512500D01*
X12157500Y-6447500D02*
X12182500Y-6472500D01*
X12182500Y-6447500D02*
X12157500Y-6472500D01*
X12197500Y-6487500D02*
X12222500Y-6512500D01*
X12222500Y-6487500D02*
X12197500Y-6512500D01*
X12237500Y-6447500D02*
X12262500Y-6472500D01*
X12262500Y-6447500D02*
X12237500Y-6472500D01*
X12277500Y-6487500D02*
X12302500Y-6512500D01*
X12302500Y-6487500D02*
X12277500Y-6512500D01*
X10120000Y-6220000D02*
G75*
G02*
X10060000Y-6220000I-30000J0D01*
G01*
X10060000Y-6220000D02*
G75*
G02*
X10120000Y-6220000I30000J0D01*
G01*
X10120000Y-6480000D02*
G75*
G02*
X10060000Y-6480000I-30000J0D01*
G01*
X10060000Y-6480000D02*
G75*
G02*
X10120000Y-6480000I30000J0D01*
G01*
X10120000Y-6740000D02*
G75*
G02*
X10060000Y-6740000I-30000J0D01*
G01*
X10060000Y-6740000D02*
G75*
G02*
X10120000Y-6740000I30000J0D01*
G01*
X10470000Y-6220000D02*
G75*
G02*
X10410000Y-6220000I-30000J0D01*
G01*
X10410000Y-6220000D02*
G75*
G02*
X10470000Y-6220000I30000J0D01*
G01*
X10470000Y-6480000D02*
G75*
G02*
X10410000Y-6480000I-30000J0D01*
G01*
X10410000Y-6480000D02*
G75*
G02*
X10470000Y-6480000I30000J0D01*
G01*
X10470000Y-6740000D02*
G75*
G02*
X10410000Y-6740000I-30000J0D01*
G01*
X10410000Y-6740000D02*
G75*
G02*
X10470000Y-6740000I30000J0D01*
G01*
D12*
X10487620Y-7249318D02*
X10487620Y-7359318D01*
X10432620Y-7304318D02*
X10542620Y-7304318D01*
X10840000Y-7545000D02*
X10840000Y-7655000D01*
X10785000Y-7600000D02*
X10895000Y-7600000D01*
X11260000Y-7705000D02*
X11260000Y-7815000D01*
X11205000Y-7760000D02*
X11315000Y-7760000D01*
X11720000Y-7705000D02*
X11720000Y-7815000D01*
X11665000Y-7760000D02*
X11775000Y-7760000D01*
X12290000Y-7413372D02*
X12290000Y-7523372D01*
X12235000Y-7468372D02*
X12345000Y-7468372D01*
X12520000Y-7015000D02*
X12520000Y-7125000D01*
X12465000Y-7070000D02*
X12575000Y-7070000D01*
X12750000Y-6616628D02*
X12750000Y-6726628D01*
X12695000Y-6671628D02*
X12805000Y-6671628D01*
D11*
X10243777Y-8297484D02*
X10243777Y-8097484D01*
X10243777Y-8097484D02*
X10291396Y-8097484D01*
X10291396Y-8097484D02*
X10319967Y-8107008D01*
X10319967Y-8107008D02*
X10339015Y-8126055D01*
X10339015Y-8126055D02*
X10348539Y-8145103D01*
X10348539Y-8145103D02*
X10358063Y-8183198D01*
X10358063Y-8183198D02*
X10358063Y-8211769D01*
X10358063Y-8211769D02*
X10348539Y-8249865D01*
X10348539Y-8249865D02*
X10339015Y-8268912D01*
X10339015Y-8268912D02*
X10319967Y-8287960D01*
X10319967Y-8287960D02*
X10291396Y-8297484D01*
X10291396Y-8297484D02*
X10243777Y-8297484D01*
X10443777Y-8297484D02*
X10443777Y-8164150D01*
X10443777Y-8202246D02*
X10453301Y-8183198D01*
X10453301Y-8183198D02*
X10462824Y-8173674D01*
X10462824Y-8173674D02*
X10481872Y-8164150D01*
X10481872Y-8164150D02*
X10500920Y-8164150D01*
X10567586Y-8297484D02*
X10567586Y-8164150D01*
X10567586Y-8097484D02*
X10558063Y-8107008D01*
X10558063Y-8107008D02*
X10567586Y-8116531D01*
X10567586Y-8116531D02*
X10577110Y-8107008D01*
X10577110Y-8107008D02*
X10567586Y-8097484D01*
X10567586Y-8097484D02*
X10567586Y-8116531D01*
X10691396Y-8297484D02*
X10672348Y-8287960D01*
X10672348Y-8287960D02*
X10662824Y-8268912D01*
X10662824Y-8268912D02*
X10662824Y-8097484D01*
X10796158Y-8297484D02*
X10777110Y-8287960D01*
X10777110Y-8287960D02*
X10767586Y-8268912D01*
X10767586Y-8268912D02*
X10767586Y-8097484D01*
X11024729Y-8297484D02*
X11024729Y-8097484D01*
X11024729Y-8097484D02*
X11091396Y-8240341D01*
X11091396Y-8240341D02*
X11158063Y-8097484D01*
X11158063Y-8097484D02*
X11158063Y-8297484D01*
X11339015Y-8297484D02*
X11339015Y-8192722D01*
X11339015Y-8192722D02*
X11329491Y-8173674D01*
X11329491Y-8173674D02*
X11310443Y-8164150D01*
X11310443Y-8164150D02*
X11272348Y-8164150D01*
X11272348Y-8164150D02*
X11253301Y-8173674D01*
X11339015Y-8287960D02*
X11319967Y-8297484D01*
X11319967Y-8297484D02*
X11272348Y-8297484D01*
X11272348Y-8297484D02*
X11253301Y-8287960D01*
X11253301Y-8287960D02*
X11243777Y-8268912D01*
X11243777Y-8268912D02*
X11243777Y-8249865D01*
X11243777Y-8249865D02*
X11253301Y-8230817D01*
X11253301Y-8230817D02*
X11272348Y-8221293D01*
X11272348Y-8221293D02*
X11319967Y-8221293D01*
X11319967Y-8221293D02*
X11339015Y-8211769D01*
X11434253Y-8164150D02*
X11434253Y-8364150D01*
X11434253Y-8173674D02*
X11453301Y-8164150D01*
X11453301Y-8164150D02*
X11491396Y-8164150D01*
X11491396Y-8164150D02*
X11510443Y-8173674D01*
X11510443Y-8173674D02*
X11519967Y-8183198D01*
X11519967Y-8183198D02*
X11529491Y-8202246D01*
X11529491Y-8202246D02*
X11529491Y-8259388D01*
X11529491Y-8259388D02*
X11519967Y-8278436D01*
X11519967Y-8278436D02*
X11510443Y-8287960D01*
X11510443Y-8287960D02*
X11491396Y-8297484D01*
X11491396Y-8297484D02*
X11453301Y-8297484D01*
X11453301Y-8297484D02*
X11434253Y-8287960D01*
X11615205Y-8278436D02*
X11624729Y-8287960D01*
X11624729Y-8287960D02*
X11615205Y-8297484D01*
X11615205Y-8297484D02*
X11605682Y-8287960D01*
X11605682Y-8287960D02*
X11615205Y-8278436D01*
X11615205Y-8278436D02*
X11615205Y-8297484D01*
X11615205Y-8173674D02*
X11624729Y-8183198D01*
X11624729Y-8183198D02*
X11615205Y-8192722D01*
X11615205Y-8192722D02*
X11605682Y-8183198D01*
X11605682Y-8183198D02*
X11615205Y-8173674D01*
X11615205Y-8173674D02*
X11615205Y-8192722D01*
D10*
X9958000Y-8613500D02*
X9983000Y-8638500D01*
X9983000Y-8613500D02*
X9958000Y-8638500D01*
D11*
X10281872Y-8517484D02*
X10300920Y-8517484D01*
X10300920Y-8517484D02*
X10319967Y-8527008D01*
X10319967Y-8527008D02*
X10329491Y-8536531D01*
X10329491Y-8536531D02*
X10339015Y-8555579D01*
X10339015Y-8555579D02*
X10348539Y-8593674D01*
X10348539Y-8593674D02*
X10348539Y-8641293D01*
X10348539Y-8641293D02*
X10339015Y-8679389D01*
X10339015Y-8679389D02*
X10329491Y-8698436D01*
X10329491Y-8698436D02*
X10319967Y-8707960D01*
X10319967Y-8707960D02*
X10300920Y-8717484D01*
X10300920Y-8717484D02*
X10281872Y-8717484D01*
X10281872Y-8717484D02*
X10262824Y-8707960D01*
X10262824Y-8707960D02*
X10253301Y-8698436D01*
X10253301Y-8698436D02*
X10243777Y-8679389D01*
X10243777Y-8679389D02*
X10234253Y-8641293D01*
X10234253Y-8641293D02*
X10234253Y-8593674D01*
X10234253Y-8593674D02*
X10243777Y-8555579D01*
X10243777Y-8555579D02*
X10253301Y-8536531D01*
X10253301Y-8536531D02*
X10262824Y-8527008D01*
X10262824Y-8527008D02*
X10281872Y-8517484D01*
X10434253Y-8698436D02*
X10443777Y-8707960D01*
X10443777Y-8707960D02*
X10434253Y-8717484D01*
X10434253Y-8717484D02*
X10424729Y-8707960D01*
X10424729Y-8707960D02*
X10434253Y-8698436D01*
X10434253Y-8698436D02*
X10434253Y-8717484D01*
X10519967Y-8536531D02*
X10529491Y-8527008D01*
X10529491Y-8527008D02*
X10548539Y-8517484D01*
X10548539Y-8517484D02*
X10596158Y-8517484D01*
X10596158Y-8517484D02*
X10615205Y-8527008D01*
X10615205Y-8527008D02*
X10624729Y-8536531D01*
X10624729Y-8536531D02*
X10634253Y-8555579D01*
X10634253Y-8555579D02*
X10634253Y-8574627D01*
X10634253Y-8574627D02*
X10624729Y-8603198D01*
X10624729Y-8603198D02*
X10510444Y-8717484D01*
X10510444Y-8717484D02*
X10634253Y-8717484D01*
X10815205Y-8517484D02*
X10719967Y-8517484D01*
X10719967Y-8517484D02*
X10710444Y-8612722D01*
X10710444Y-8612722D02*
X10719967Y-8603198D01*
X10719967Y-8603198D02*
X10739015Y-8593674D01*
X10739015Y-8593674D02*
X10786634Y-8593674D01*
X10786634Y-8593674D02*
X10805682Y-8603198D01*
X10805682Y-8603198D02*
X10815205Y-8612722D01*
X10815205Y-8612722D02*
X10824729Y-8631770D01*
X10824729Y-8631770D02*
X10824729Y-8679389D01*
X10824729Y-8679389D02*
X10815205Y-8698436D01*
X10815205Y-8698436D02*
X10805682Y-8707960D01*
X10805682Y-8707960D02*
X10786634Y-8717484D01*
X10786634Y-8717484D02*
X10739015Y-8717484D01*
X10739015Y-8717484D02*
X10719967Y-8707960D01*
X10719967Y-8707960D02*
X10710444Y-8698436D01*
X10948539Y-8517484D02*
X10967586Y-8517484D01*
X10967586Y-8517484D02*
X10986634Y-8527008D01*
X10986634Y-8527008D02*
X10996158Y-8536531D01*
X10996158Y-8536531D02*
X11005682Y-8555579D01*
X11005682Y-8555579D02*
X11015205Y-8593674D01*
X11015205Y-8593674D02*
X11015205Y-8641293D01*
X11015205Y-8641293D02*
X11005682Y-8679389D01*
X11005682Y-8679389D02*
X10996158Y-8698436D01*
X10996158Y-8698436D02*
X10986634Y-8707960D01*
X10986634Y-8707960D02*
X10967586Y-8717484D01*
X10967586Y-8717484D02*
X10948539Y-8717484D01*
X10948539Y-8717484D02*
X10929491Y-8707960D01*
X10929491Y-8707960D02*
X10919967Y-8698436D01*
X10919967Y-8698436D02*
X10910444Y-8679389D01*
X10910444Y-8679389D02*
X10900920Y-8641293D01*
X10900920Y-8641293D02*
X10900920Y-8593674D01*
X10900920Y-8593674D02*
X10910444Y-8555579D01*
X10910444Y-8555579D02*
X10919967Y-8536531D01*
X10919967Y-8536531D02*
X10929491Y-8527008D01*
X10929491Y-8527008D02*
X10948539Y-8517484D01*
X11100920Y-8717484D02*
X11100920Y-8584150D01*
X11100920Y-8603198D02*
X11110444Y-8593674D01*
X11110444Y-8593674D02*
X11129491Y-8584150D01*
X11129491Y-8584150D02*
X11158063Y-8584150D01*
X11158063Y-8584150D02*
X11177110Y-8593674D01*
X11177110Y-8593674D02*
X11186634Y-8612722D01*
X11186634Y-8612722D02*
X11186634Y-8717484D01*
X11186634Y-8612722D02*
X11196158Y-8593674D01*
X11196158Y-8593674D02*
X11215205Y-8584150D01*
X11215205Y-8584150D02*
X11243777Y-8584150D01*
X11243777Y-8584150D02*
X11262824Y-8593674D01*
X11262824Y-8593674D02*
X11272348Y-8612722D01*
X11272348Y-8612722D02*
X11272348Y-8717484D01*
X11367586Y-8717484D02*
X11367586Y-8584150D01*
X11367586Y-8603198D02*
X11377110Y-8593674D01*
X11377110Y-8593674D02*
X11396158Y-8584150D01*
X11396158Y-8584150D02*
X11424729Y-8584150D01*
X11424729Y-8584150D02*
X11443777Y-8593674D01*
X11443777Y-8593674D02*
X11453301Y-8612722D01*
X11453301Y-8612722D02*
X11453301Y-8717484D01*
X11453301Y-8612722D02*
X11462824Y-8593674D01*
X11462824Y-8593674D02*
X11481872Y-8584150D01*
X11481872Y-8584150D02*
X11510443Y-8584150D01*
X11510443Y-8584150D02*
X11529491Y-8593674D01*
X11529491Y-8593674D02*
X11539015Y-8612722D01*
X11539015Y-8612722D02*
X11539015Y-8717484D01*
X11929491Y-8507960D02*
X11758063Y-8765103D01*
X12186634Y-8517484D02*
X12205682Y-8517484D01*
X12205682Y-8517484D02*
X12224729Y-8527008D01*
X12224729Y-8527008D02*
X12234253Y-8536531D01*
X12234253Y-8536531D02*
X12243777Y-8555579D01*
X12243777Y-8555579D02*
X12253301Y-8593674D01*
X12253301Y-8593674D02*
X12253301Y-8641293D01*
X12253301Y-8641293D02*
X12243777Y-8679389D01*
X12243777Y-8679389D02*
X12234253Y-8698436D01*
X12234253Y-8698436D02*
X12224729Y-8707960D01*
X12224729Y-8707960D02*
X12205682Y-8717484D01*
X12205682Y-8717484D02*
X12186634Y-8717484D01*
X12186634Y-8717484D02*
X12167586Y-8707960D01*
X12167586Y-8707960D02*
X12158063Y-8698436D01*
X12158063Y-8698436D02*
X12148539Y-8679389D01*
X12148539Y-8679389D02*
X12139015Y-8641293D01*
X12139015Y-8641293D02*
X12139015Y-8593674D01*
X12139015Y-8593674D02*
X12148539Y-8555579D01*
X12148539Y-8555579D02*
X12158063Y-8536531D01*
X12158063Y-8536531D02*
X12167586Y-8527008D01*
X12167586Y-8527008D02*
X12186634Y-8517484D01*
X12339015Y-8698436D02*
X12348539Y-8707960D01*
X12348539Y-8707960D02*
X12339015Y-8717484D01*
X12339015Y-8717484D02*
X12329491Y-8707960D01*
X12329491Y-8707960D02*
X12339015Y-8698436D01*
X12339015Y-8698436D02*
X12339015Y-8717484D01*
X12472348Y-8517484D02*
X12491396Y-8517484D01*
X12491396Y-8517484D02*
X12510444Y-8527008D01*
X12510444Y-8527008D02*
X12519967Y-8536531D01*
X12519967Y-8536531D02*
X12529491Y-8555579D01*
X12529491Y-8555579D02*
X12539015Y-8593674D01*
X12539015Y-8593674D02*
X12539015Y-8641293D01*
X12539015Y-8641293D02*
X12529491Y-8679389D01*
X12529491Y-8679389D02*
X12519967Y-8698436D01*
X12519967Y-8698436D02*
X12510444Y-8707960D01*
X12510444Y-8707960D02*
X12491396Y-8717484D01*
X12491396Y-8717484D02*
X12472348Y-8717484D01*
X12472348Y-8717484D02*
X12453301Y-8707960D01*
X12453301Y-8707960D02*
X12443777Y-8698436D01*
X12443777Y-8698436D02*
X12434253Y-8679389D01*
X12434253Y-8679389D02*
X12424729Y-8641293D01*
X12424729Y-8641293D02*
X12424729Y-8593674D01*
X12424729Y-8593674D02*
X12434253Y-8555579D01*
X12434253Y-8555579D02*
X12443777Y-8536531D01*
X12443777Y-8536531D02*
X12453301Y-8527008D01*
X12453301Y-8527008D02*
X12472348Y-8517484D01*
X12662825Y-8517484D02*
X12681872Y-8517484D01*
X12681872Y-8517484D02*
X12700920Y-8527008D01*
X12700920Y-8527008D02*
X12710444Y-8536531D01*
X12710444Y-8536531D02*
X12719967Y-8555579D01*
X12719967Y-8555579D02*
X12729491Y-8593674D01*
X12729491Y-8593674D02*
X12729491Y-8641293D01*
X12729491Y-8641293D02*
X12719967Y-8679389D01*
X12719967Y-8679389D02*
X12710444Y-8698436D01*
X12710444Y-8698436D02*
X12700920Y-8707960D01*
X12700920Y-8707960D02*
X12681872Y-8717484D01*
X12681872Y-8717484D02*
X12662825Y-8717484D01*
X12662825Y-8717484D02*
X12643777Y-8707960D01*
X12643777Y-8707960D02*
X12634253Y-8698436D01*
X12634253Y-8698436D02*
X12624729Y-8679389D01*
X12624729Y-8679389D02*
X12615206Y-8641293D01*
X12615206Y-8641293D02*
X12615206Y-8593674D01*
X12615206Y-8593674D02*
X12624729Y-8555579D01*
X12624729Y-8555579D02*
X12634253Y-8536531D01*
X12634253Y-8536531D02*
X12643777Y-8527008D01*
X12643777Y-8527008D02*
X12662825Y-8517484D01*
X12824729Y-8717484D02*
X12862825Y-8717484D01*
X12862825Y-8717484D02*
X12881872Y-8707960D01*
X12881872Y-8707960D02*
X12891396Y-8698436D01*
X12891396Y-8698436D02*
X12910444Y-8669865D01*
X12910444Y-8669865D02*
X12919967Y-8631770D01*
X12919967Y-8631770D02*
X12919967Y-8555579D01*
X12919967Y-8555579D02*
X12910444Y-8536531D01*
X12910444Y-8536531D02*
X12900920Y-8527008D01*
X12900920Y-8527008D02*
X12881872Y-8517484D01*
X12881872Y-8517484D02*
X12843777Y-8517484D01*
X12843777Y-8517484D02*
X12824729Y-8527008D01*
X12824729Y-8527008D02*
X12815206Y-8536531D01*
X12815206Y-8536531D02*
X12805682Y-8555579D01*
X12805682Y-8555579D02*
X12805682Y-8603198D01*
X12805682Y-8603198D02*
X12815206Y-8622246D01*
X12815206Y-8622246D02*
X12824729Y-8631770D01*
X12824729Y-8631770D02*
X12843777Y-8641293D01*
X12843777Y-8641293D02*
X12881872Y-8641293D01*
X12881872Y-8641293D02*
X12900920Y-8631770D01*
X12900920Y-8631770D02*
X12910444Y-8622246D01*
X12910444Y-8622246D02*
X12919967Y-8603198D01*
X13034253Y-8603198D02*
X13015206Y-8593674D01*
X13015206Y-8593674D02*
X13005682Y-8584150D01*
X13005682Y-8584150D02*
X12996158Y-8565103D01*
X12996158Y-8565103D02*
X12996158Y-8555579D01*
X12996158Y-8555579D02*
X13005682Y-8536531D01*
X13005682Y-8536531D02*
X13015206Y-8527008D01*
X13015206Y-8527008D02*
X13034253Y-8517484D01*
X13034253Y-8517484D02*
X13072348Y-8517484D01*
X13072348Y-8517484D02*
X13091396Y-8527008D01*
X13091396Y-8527008D02*
X13100920Y-8536531D01*
X13100920Y-8536531D02*
X13110444Y-8555579D01*
X13110444Y-8555579D02*
X13110444Y-8565103D01*
X13110444Y-8565103D02*
X13100920Y-8584150D01*
X13100920Y-8584150D02*
X13091396Y-8593674D01*
X13091396Y-8593674D02*
X13072348Y-8603198D01*
X13072348Y-8603198D02*
X13034253Y-8603198D01*
X13034253Y-8603198D02*
X13015206Y-8612722D01*
X13015206Y-8612722D02*
X13005682Y-8622246D01*
X13005682Y-8622246D02*
X12996158Y-8641293D01*
X12996158Y-8641293D02*
X12996158Y-8679389D01*
X12996158Y-8679389D02*
X13005682Y-8698436D01*
X13005682Y-8698436D02*
X13015206Y-8707960D01*
X13015206Y-8707960D02*
X13034253Y-8717484D01*
X13034253Y-8717484D02*
X13072348Y-8717484D01*
X13072348Y-8717484D02*
X13091396Y-8707960D01*
X13091396Y-8707960D02*
X13100920Y-8698436D01*
X13100920Y-8698436D02*
X13110444Y-8679389D01*
X13110444Y-8679389D02*
X13110444Y-8641293D01*
X13110444Y-8641293D02*
X13100920Y-8622246D01*
X13100920Y-8622246D02*
X13091396Y-8612722D01*
X13091396Y-8612722D02*
X13072348Y-8603198D01*
X13186634Y-8517484D02*
X13186634Y-8555579D01*
X13262825Y-8517484D02*
X13262825Y-8555579D01*
X13558063Y-8793674D02*
X13548539Y-8784150D01*
X13548539Y-8784150D02*
X13529491Y-8755579D01*
X13529491Y-8755579D02*
X13519968Y-8736531D01*
X13519968Y-8736531D02*
X13510444Y-8707960D01*
X13510444Y-8707960D02*
X13500920Y-8660341D01*
X13500920Y-8660341D02*
X13500920Y-8622246D01*
X13500920Y-8622246D02*
X13510444Y-8574627D01*
X13510444Y-8574627D02*
X13519968Y-8546055D01*
X13519968Y-8546055D02*
X13529491Y-8527008D01*
X13529491Y-8527008D02*
X13548539Y-8498436D01*
X13548539Y-8498436D02*
X13558063Y-8488912D01*
X13719968Y-8584150D02*
X13719968Y-8717484D01*
X13672348Y-8507960D02*
X13624729Y-8650817D01*
X13624729Y-8650817D02*
X13748539Y-8650817D01*
X13805682Y-8517484D02*
X13939015Y-8517484D01*
X13939015Y-8517484D02*
X13853301Y-8717484D01*
X14167587Y-8717484D02*
X14167587Y-8517484D01*
X14253301Y-8717484D02*
X14253301Y-8612722D01*
X14253301Y-8612722D02*
X14243777Y-8593674D01*
X14243777Y-8593674D02*
X14224730Y-8584150D01*
X14224730Y-8584150D02*
X14196158Y-8584150D01*
X14196158Y-8584150D02*
X14177110Y-8593674D01*
X14177110Y-8593674D02*
X14167587Y-8603198D01*
X14377110Y-8717484D02*
X14358063Y-8707960D01*
X14358063Y-8707960D02*
X14348539Y-8698436D01*
X14348539Y-8698436D02*
X14339015Y-8679389D01*
X14339015Y-8679389D02*
X14339015Y-8622246D01*
X14339015Y-8622246D02*
X14348539Y-8603198D01*
X14348539Y-8603198D02*
X14358063Y-8593674D01*
X14358063Y-8593674D02*
X14377110Y-8584150D01*
X14377110Y-8584150D02*
X14405682Y-8584150D01*
X14405682Y-8584150D02*
X14424730Y-8593674D01*
X14424730Y-8593674D02*
X14434253Y-8603198D01*
X14434253Y-8603198D02*
X14443777Y-8622246D01*
X14443777Y-8622246D02*
X14443777Y-8679389D01*
X14443777Y-8679389D02*
X14434253Y-8698436D01*
X14434253Y-8698436D02*
X14424730Y-8707960D01*
X14424730Y-8707960D02*
X14405682Y-8717484D01*
X14405682Y-8717484D02*
X14377110Y-8717484D01*
X14558063Y-8717484D02*
X14539015Y-8707960D01*
X14539015Y-8707960D02*
X14529491Y-8688912D01*
X14529491Y-8688912D02*
X14529491Y-8517484D01*
X14710444Y-8707960D02*
X14691396Y-8717484D01*
X14691396Y-8717484D02*
X14653301Y-8717484D01*
X14653301Y-8717484D02*
X14634253Y-8707960D01*
X14634253Y-8707960D02*
X14624730Y-8688912D01*
X14624730Y-8688912D02*
X14624730Y-8612722D01*
X14624730Y-8612722D02*
X14634253Y-8593674D01*
X14634253Y-8593674D02*
X14653301Y-8584150D01*
X14653301Y-8584150D02*
X14691396Y-8584150D01*
X14691396Y-8584150D02*
X14710444Y-8593674D01*
X14710444Y-8593674D02*
X14719968Y-8612722D01*
X14719968Y-8612722D02*
X14719968Y-8631770D01*
X14719968Y-8631770D02*
X14624730Y-8650817D01*
X14796158Y-8707960D02*
X14815206Y-8717484D01*
X14815206Y-8717484D02*
X14853301Y-8717484D01*
X14853301Y-8717484D02*
X14872349Y-8707960D01*
X14872349Y-8707960D02*
X14881872Y-8688912D01*
X14881872Y-8688912D02*
X14881872Y-8679389D01*
X14881872Y-8679389D02*
X14872349Y-8660341D01*
X14872349Y-8660341D02*
X14853301Y-8650817D01*
X14853301Y-8650817D02*
X14824730Y-8650817D01*
X14824730Y-8650817D02*
X14805682Y-8641293D01*
X14805682Y-8641293D02*
X14796158Y-8622246D01*
X14796158Y-8622246D02*
X14796158Y-8612722D01*
X14796158Y-8612722D02*
X14805682Y-8593674D01*
X14805682Y-8593674D02*
X14824730Y-8584150D01*
X14824730Y-8584150D02*
X14853301Y-8584150D01*
X14853301Y-8584150D02*
X14872349Y-8593674D01*
X14948539Y-8793674D02*
X14958063Y-8784150D01*
X14958063Y-8784150D02*
X14977111Y-8755579D01*
X14977111Y-8755579D02*
X14986634Y-8736531D01*
X14986634Y-8736531D02*
X14996158Y-8707960D01*
X14996158Y-8707960D02*
X15005682Y-8660341D01*
X15005682Y-8660341D02*
X15005682Y-8622246D01*
X15005682Y-8622246D02*
X14996158Y-8574627D01*
X14996158Y-8574627D02*
X14986634Y-8546055D01*
X14986634Y-8546055D02*
X14977111Y-8527008D01*
X14977111Y-8527008D02*
X14958063Y-8498436D01*
X14958063Y-8498436D02*
X14948539Y-8488912D01*
D10*
X9983000Y-8890000D02*
G75*
G02*
X9923000Y-8890000I-30000J0D01*
G01*
X9923000Y-8890000D02*
G75*
G02*
X9983000Y-8890000I30000J0D01*
G01*
D11*
X10281872Y-8781484D02*
X10300920Y-8781484D01*
X10300920Y-8781484D02*
X10319967Y-8791008D01*
X10319967Y-8791008D02*
X10329491Y-8800531D01*
X10329491Y-8800531D02*
X10339015Y-8819579D01*
X10339015Y-8819579D02*
X10348539Y-8857674D01*
X10348539Y-8857674D02*
X10348539Y-8905293D01*
X10348539Y-8905293D02*
X10339015Y-8943389D01*
X10339015Y-8943389D02*
X10329491Y-8962436D01*
X10329491Y-8962436D02*
X10319967Y-8971960D01*
X10319967Y-8971960D02*
X10300920Y-8981484D01*
X10300920Y-8981484D02*
X10281872Y-8981484D01*
X10281872Y-8981484D02*
X10262824Y-8971960D01*
X10262824Y-8971960D02*
X10253301Y-8962436D01*
X10253301Y-8962436D02*
X10243777Y-8943389D01*
X10243777Y-8943389D02*
X10234253Y-8905293D01*
X10234253Y-8905293D02*
X10234253Y-8857674D01*
X10234253Y-8857674D02*
X10243777Y-8819579D01*
X10243777Y-8819579D02*
X10253301Y-8800531D01*
X10253301Y-8800531D02*
X10262824Y-8791008D01*
X10262824Y-8791008D02*
X10281872Y-8781484D01*
X10434253Y-8962436D02*
X10443777Y-8971960D01*
X10443777Y-8971960D02*
X10434253Y-8981484D01*
X10434253Y-8981484D02*
X10424729Y-8971960D01*
X10424729Y-8971960D02*
X10434253Y-8962436D01*
X10434253Y-8962436D02*
X10434253Y-8981484D01*
X10615205Y-8781484D02*
X10577110Y-8781484D01*
X10577110Y-8781484D02*
X10558063Y-8791008D01*
X10558063Y-8791008D02*
X10548539Y-8800531D01*
X10548539Y-8800531D02*
X10529491Y-8829103D01*
X10529491Y-8829103D02*
X10519967Y-8867198D01*
X10519967Y-8867198D02*
X10519967Y-8943389D01*
X10519967Y-8943389D02*
X10529491Y-8962436D01*
X10529491Y-8962436D02*
X10539015Y-8971960D01*
X10539015Y-8971960D02*
X10558063Y-8981484D01*
X10558063Y-8981484D02*
X10596158Y-8981484D01*
X10596158Y-8981484D02*
X10615205Y-8971960D01*
X10615205Y-8971960D02*
X10624729Y-8962436D01*
X10624729Y-8962436D02*
X10634253Y-8943389D01*
X10634253Y-8943389D02*
X10634253Y-8895770D01*
X10634253Y-8895770D02*
X10624729Y-8876722D01*
X10624729Y-8876722D02*
X10615205Y-8867198D01*
X10615205Y-8867198D02*
X10596158Y-8857674D01*
X10596158Y-8857674D02*
X10558063Y-8857674D01*
X10558063Y-8857674D02*
X10539015Y-8867198D01*
X10539015Y-8867198D02*
X10529491Y-8876722D01*
X10529491Y-8876722D02*
X10519967Y-8895770D01*
X10758063Y-8781484D02*
X10777110Y-8781484D01*
X10777110Y-8781484D02*
X10796158Y-8791008D01*
X10796158Y-8791008D02*
X10805682Y-8800531D01*
X10805682Y-8800531D02*
X10815205Y-8819579D01*
X10815205Y-8819579D02*
X10824729Y-8857674D01*
X10824729Y-8857674D02*
X10824729Y-8905293D01*
X10824729Y-8905293D02*
X10815205Y-8943389D01*
X10815205Y-8943389D02*
X10805682Y-8962436D01*
X10805682Y-8962436D02*
X10796158Y-8971960D01*
X10796158Y-8971960D02*
X10777110Y-8981484D01*
X10777110Y-8981484D02*
X10758063Y-8981484D01*
X10758063Y-8981484D02*
X10739015Y-8971960D01*
X10739015Y-8971960D02*
X10729491Y-8962436D01*
X10729491Y-8962436D02*
X10719967Y-8943389D01*
X10719967Y-8943389D02*
X10710444Y-8905293D01*
X10710444Y-8905293D02*
X10710444Y-8857674D01*
X10710444Y-8857674D02*
X10719967Y-8819579D01*
X10719967Y-8819579D02*
X10729491Y-8800531D01*
X10729491Y-8800531D02*
X10739015Y-8791008D01*
X10739015Y-8791008D02*
X10758063Y-8781484D01*
X10948539Y-8781484D02*
X10967586Y-8781484D01*
X10967586Y-8781484D02*
X10986634Y-8791008D01*
X10986634Y-8791008D02*
X10996158Y-8800531D01*
X10996158Y-8800531D02*
X11005682Y-8819579D01*
X11005682Y-8819579D02*
X11015205Y-8857674D01*
X11015205Y-8857674D02*
X11015205Y-8905293D01*
X11015205Y-8905293D02*
X11005682Y-8943389D01*
X11005682Y-8943389D02*
X10996158Y-8962436D01*
X10996158Y-8962436D02*
X10986634Y-8971960D01*
X10986634Y-8971960D02*
X10967586Y-8981484D01*
X10967586Y-8981484D02*
X10948539Y-8981484D01*
X10948539Y-8981484D02*
X10929491Y-8971960D01*
X10929491Y-8971960D02*
X10919967Y-8962436D01*
X10919967Y-8962436D02*
X10910444Y-8943389D01*
X10910444Y-8943389D02*
X10900920Y-8905293D01*
X10900920Y-8905293D02*
X10900920Y-8857674D01*
X10900920Y-8857674D02*
X10910444Y-8819579D01*
X10910444Y-8819579D02*
X10919967Y-8800531D01*
X10919967Y-8800531D02*
X10929491Y-8791008D01*
X10929491Y-8791008D02*
X10948539Y-8781484D01*
X11100920Y-8981484D02*
X11100920Y-8848150D01*
X11100920Y-8867198D02*
X11110444Y-8857674D01*
X11110444Y-8857674D02*
X11129491Y-8848150D01*
X11129491Y-8848150D02*
X11158063Y-8848150D01*
X11158063Y-8848150D02*
X11177110Y-8857674D01*
X11177110Y-8857674D02*
X11186634Y-8876722D01*
X11186634Y-8876722D02*
X11186634Y-8981484D01*
X11186634Y-8876722D02*
X11196158Y-8857674D01*
X11196158Y-8857674D02*
X11215205Y-8848150D01*
X11215205Y-8848150D02*
X11243777Y-8848150D01*
X11243777Y-8848150D02*
X11262824Y-8857674D01*
X11262824Y-8857674D02*
X11272348Y-8876722D01*
X11272348Y-8876722D02*
X11272348Y-8981484D01*
X11367586Y-8981484D02*
X11367586Y-8848150D01*
X11367586Y-8867198D02*
X11377110Y-8857674D01*
X11377110Y-8857674D02*
X11396158Y-8848150D01*
X11396158Y-8848150D02*
X11424729Y-8848150D01*
X11424729Y-8848150D02*
X11443777Y-8857674D01*
X11443777Y-8857674D02*
X11453301Y-8876722D01*
X11453301Y-8876722D02*
X11453301Y-8981484D01*
X11453301Y-8876722D02*
X11462824Y-8857674D01*
X11462824Y-8857674D02*
X11481872Y-8848150D01*
X11481872Y-8848150D02*
X11510443Y-8848150D01*
X11510443Y-8848150D02*
X11529491Y-8857674D01*
X11529491Y-8857674D02*
X11539015Y-8876722D01*
X11539015Y-8876722D02*
X11539015Y-8981484D01*
X11929491Y-8771960D02*
X11758063Y-9029103D01*
X12186634Y-8781484D02*
X12205682Y-8781484D01*
X12205682Y-8781484D02*
X12224729Y-8791008D01*
X12224729Y-8791008D02*
X12234253Y-8800531D01*
X12234253Y-8800531D02*
X12243777Y-8819579D01*
X12243777Y-8819579D02*
X12253301Y-8857674D01*
X12253301Y-8857674D02*
X12253301Y-8905293D01*
X12253301Y-8905293D02*
X12243777Y-8943389D01*
X12243777Y-8943389D02*
X12234253Y-8962436D01*
X12234253Y-8962436D02*
X12224729Y-8971960D01*
X12224729Y-8971960D02*
X12205682Y-8981484D01*
X12205682Y-8981484D02*
X12186634Y-8981484D01*
X12186634Y-8981484D02*
X12167586Y-8971960D01*
X12167586Y-8971960D02*
X12158063Y-8962436D01*
X12158063Y-8962436D02*
X12148539Y-8943389D01*
X12148539Y-8943389D02*
X12139015Y-8905293D01*
X12139015Y-8905293D02*
X12139015Y-8857674D01*
X12139015Y-8857674D02*
X12148539Y-8819579D01*
X12148539Y-8819579D02*
X12158063Y-8800531D01*
X12158063Y-8800531D02*
X12167586Y-8791008D01*
X12167586Y-8791008D02*
X12186634Y-8781484D01*
X12339015Y-8962436D02*
X12348539Y-8971960D01*
X12348539Y-8971960D02*
X12339015Y-8981484D01*
X12339015Y-8981484D02*
X12329491Y-8971960D01*
X12329491Y-8971960D02*
X12339015Y-8962436D01*
X12339015Y-8962436D02*
X12339015Y-8981484D01*
X12472348Y-8781484D02*
X12491396Y-8781484D01*
X12491396Y-8781484D02*
X12510444Y-8791008D01*
X12510444Y-8791008D02*
X12519967Y-8800531D01*
X12519967Y-8800531D02*
X12529491Y-8819579D01*
X12529491Y-8819579D02*
X12539015Y-8857674D01*
X12539015Y-8857674D02*
X12539015Y-8905293D01*
X12539015Y-8905293D02*
X12529491Y-8943389D01*
X12529491Y-8943389D02*
X12519967Y-8962436D01*
X12519967Y-8962436D02*
X12510444Y-8971960D01*
X12510444Y-8971960D02*
X12491396Y-8981484D01*
X12491396Y-8981484D02*
X12472348Y-8981484D01*
X12472348Y-8981484D02*
X12453301Y-8971960D01*
X12453301Y-8971960D02*
X12443777Y-8962436D01*
X12443777Y-8962436D02*
X12434253Y-8943389D01*
X12434253Y-8943389D02*
X12424729Y-8905293D01*
X12424729Y-8905293D02*
X12424729Y-8857674D01*
X12424729Y-8857674D02*
X12434253Y-8819579D01*
X12434253Y-8819579D02*
X12443777Y-8800531D01*
X12443777Y-8800531D02*
X12453301Y-8791008D01*
X12453301Y-8791008D02*
X12472348Y-8781484D01*
X12615206Y-8800531D02*
X12624729Y-8791008D01*
X12624729Y-8791008D02*
X12643777Y-8781484D01*
X12643777Y-8781484D02*
X12691396Y-8781484D01*
X12691396Y-8781484D02*
X12710444Y-8791008D01*
X12710444Y-8791008D02*
X12719967Y-8800531D01*
X12719967Y-8800531D02*
X12729491Y-8819579D01*
X12729491Y-8819579D02*
X12729491Y-8838627D01*
X12729491Y-8838627D02*
X12719967Y-8867198D01*
X12719967Y-8867198D02*
X12605682Y-8981484D01*
X12605682Y-8981484D02*
X12729491Y-8981484D01*
X12796158Y-8781484D02*
X12919967Y-8781484D01*
X12919967Y-8781484D02*
X12853301Y-8857674D01*
X12853301Y-8857674D02*
X12881872Y-8857674D01*
X12881872Y-8857674D02*
X12900920Y-8867198D01*
X12900920Y-8867198D02*
X12910444Y-8876722D01*
X12910444Y-8876722D02*
X12919967Y-8895770D01*
X12919967Y-8895770D02*
X12919967Y-8943389D01*
X12919967Y-8943389D02*
X12910444Y-8962436D01*
X12910444Y-8962436D02*
X12900920Y-8971960D01*
X12900920Y-8971960D02*
X12881872Y-8981484D01*
X12881872Y-8981484D02*
X12824729Y-8981484D01*
X12824729Y-8981484D02*
X12805682Y-8971960D01*
X12805682Y-8971960D02*
X12796158Y-8962436D01*
X13091396Y-8781484D02*
X13053301Y-8781484D01*
X13053301Y-8781484D02*
X13034253Y-8791008D01*
X13034253Y-8791008D02*
X13024729Y-8800531D01*
X13024729Y-8800531D02*
X13005682Y-8829103D01*
X13005682Y-8829103D02*
X12996158Y-8867198D01*
X12996158Y-8867198D02*
X12996158Y-8943389D01*
X12996158Y-8943389D02*
X13005682Y-8962436D01*
X13005682Y-8962436D02*
X13015206Y-8971960D01*
X13015206Y-8971960D02*
X13034253Y-8981484D01*
X13034253Y-8981484D02*
X13072348Y-8981484D01*
X13072348Y-8981484D02*
X13091396Y-8971960D01*
X13091396Y-8971960D02*
X13100920Y-8962436D01*
X13100920Y-8962436D02*
X13110444Y-8943389D01*
X13110444Y-8943389D02*
X13110444Y-8895770D01*
X13110444Y-8895770D02*
X13100920Y-8876722D01*
X13100920Y-8876722D02*
X13091396Y-8867198D01*
X13091396Y-8867198D02*
X13072348Y-8857674D01*
X13072348Y-8857674D02*
X13034253Y-8857674D01*
X13034253Y-8857674D02*
X13015206Y-8867198D01*
X13015206Y-8867198D02*
X13005682Y-8876722D01*
X13005682Y-8876722D02*
X12996158Y-8895770D01*
X13186634Y-8781484D02*
X13186634Y-8819579D01*
X13262825Y-8781484D02*
X13262825Y-8819579D01*
X13558063Y-9057674D02*
X13548539Y-9048150D01*
X13548539Y-9048150D02*
X13529491Y-9019579D01*
X13529491Y-9019579D02*
X13519968Y-9000531D01*
X13519968Y-9000531D02*
X13510444Y-8971960D01*
X13510444Y-8971960D02*
X13500920Y-8924341D01*
X13500920Y-8924341D02*
X13500920Y-8886246D01*
X13500920Y-8886246D02*
X13510444Y-8838627D01*
X13510444Y-8838627D02*
X13519968Y-8810055D01*
X13519968Y-8810055D02*
X13529491Y-8791008D01*
X13529491Y-8791008D02*
X13548539Y-8762436D01*
X13548539Y-8762436D02*
X13558063Y-8752912D01*
X13719968Y-8781484D02*
X13681872Y-8781484D01*
X13681872Y-8781484D02*
X13662825Y-8791008D01*
X13662825Y-8791008D02*
X13653301Y-8800531D01*
X13653301Y-8800531D02*
X13634253Y-8829103D01*
X13634253Y-8829103D02*
X13624729Y-8867198D01*
X13624729Y-8867198D02*
X13624729Y-8943389D01*
X13624729Y-8943389D02*
X13634253Y-8962436D01*
X13634253Y-8962436D02*
X13643777Y-8971960D01*
X13643777Y-8971960D02*
X13662825Y-8981484D01*
X13662825Y-8981484D02*
X13700920Y-8981484D01*
X13700920Y-8981484D02*
X13719968Y-8971960D01*
X13719968Y-8971960D02*
X13729491Y-8962436D01*
X13729491Y-8962436D02*
X13739015Y-8943389D01*
X13739015Y-8943389D02*
X13739015Y-8895770D01*
X13739015Y-8895770D02*
X13729491Y-8876722D01*
X13729491Y-8876722D02*
X13719968Y-8867198D01*
X13719968Y-8867198D02*
X13700920Y-8857674D01*
X13700920Y-8857674D02*
X13662825Y-8857674D01*
X13662825Y-8857674D02*
X13643777Y-8867198D01*
X13643777Y-8867198D02*
X13634253Y-8876722D01*
X13634253Y-8876722D02*
X13624729Y-8895770D01*
X13977110Y-8981484D02*
X13977110Y-8781484D01*
X14062825Y-8981484D02*
X14062825Y-8876722D01*
X14062825Y-8876722D02*
X14053301Y-8857674D01*
X14053301Y-8857674D02*
X14034253Y-8848150D01*
X14034253Y-8848150D02*
X14005682Y-8848150D01*
X14005682Y-8848150D02*
X13986634Y-8857674D01*
X13986634Y-8857674D02*
X13977110Y-8867198D01*
X14186634Y-8981484D02*
X14167587Y-8971960D01*
X14167587Y-8971960D02*
X14158063Y-8962436D01*
X14158063Y-8962436D02*
X14148539Y-8943389D01*
X14148539Y-8943389D02*
X14148539Y-8886246D01*
X14148539Y-8886246D02*
X14158063Y-8867198D01*
X14158063Y-8867198D02*
X14167587Y-8857674D01*
X14167587Y-8857674D02*
X14186634Y-8848150D01*
X14186634Y-8848150D02*
X14215206Y-8848150D01*
X14215206Y-8848150D02*
X14234253Y-8857674D01*
X14234253Y-8857674D02*
X14243777Y-8867198D01*
X14243777Y-8867198D02*
X14253301Y-8886246D01*
X14253301Y-8886246D02*
X14253301Y-8943389D01*
X14253301Y-8943389D02*
X14243777Y-8962436D01*
X14243777Y-8962436D02*
X14234253Y-8971960D01*
X14234253Y-8971960D02*
X14215206Y-8981484D01*
X14215206Y-8981484D02*
X14186634Y-8981484D01*
X14367587Y-8981484D02*
X14348539Y-8971960D01*
X14348539Y-8971960D02*
X14339015Y-8952912D01*
X14339015Y-8952912D02*
X14339015Y-8781484D01*
X14519968Y-8971960D02*
X14500920Y-8981484D01*
X14500920Y-8981484D02*
X14462825Y-8981484D01*
X14462825Y-8981484D02*
X14443777Y-8971960D01*
X14443777Y-8971960D02*
X14434253Y-8952912D01*
X14434253Y-8952912D02*
X14434253Y-8876722D01*
X14434253Y-8876722D02*
X14443777Y-8857674D01*
X14443777Y-8857674D02*
X14462825Y-8848150D01*
X14462825Y-8848150D02*
X14500920Y-8848150D01*
X14500920Y-8848150D02*
X14519968Y-8857674D01*
X14519968Y-8857674D02*
X14529491Y-8876722D01*
X14529491Y-8876722D02*
X14529491Y-8895770D01*
X14529491Y-8895770D02*
X14434253Y-8914817D01*
X14605682Y-8971960D02*
X14624730Y-8981484D01*
X14624730Y-8981484D02*
X14662825Y-8981484D01*
X14662825Y-8981484D02*
X14681872Y-8971960D01*
X14681872Y-8971960D02*
X14691396Y-8952912D01*
X14691396Y-8952912D02*
X14691396Y-8943389D01*
X14691396Y-8943389D02*
X14681872Y-8924341D01*
X14681872Y-8924341D02*
X14662825Y-8914817D01*
X14662825Y-8914817D02*
X14634253Y-8914817D01*
X14634253Y-8914817D02*
X14615206Y-8905293D01*
X14615206Y-8905293D02*
X14605682Y-8886246D01*
X14605682Y-8886246D02*
X14605682Y-8876722D01*
X14605682Y-8876722D02*
X14615206Y-8857674D01*
X14615206Y-8857674D02*
X14634253Y-8848150D01*
X14634253Y-8848150D02*
X14662825Y-8848150D01*
X14662825Y-8848150D02*
X14681872Y-8857674D01*
X14758063Y-9057674D02*
X14767587Y-9048150D01*
X14767587Y-9048150D02*
X14786634Y-9019579D01*
X14786634Y-9019579D02*
X14796158Y-9000531D01*
X14796158Y-9000531D02*
X14805682Y-8971960D01*
X14805682Y-8971960D02*
X14815206Y-8924341D01*
X14815206Y-8924341D02*
X14815206Y-8886246D01*
X14815206Y-8886246D02*
X14805682Y-8838627D01*
X14805682Y-8838627D02*
X14796158Y-8810055D01*
X14796158Y-8810055D02*
X14786634Y-8791008D01*
X14786634Y-8791008D02*
X14767587Y-8762436D01*
X14767587Y-8762436D02*
X14758063Y-8752912D01*
D12*
X9928000Y-9099000D02*
X9928000Y-9209000D01*
X9873000Y-9154000D02*
X9983000Y-9154000D01*
D11*
X10348539Y-9245484D02*
X10234253Y-9245484D01*
X10291396Y-9245484D02*
X10291396Y-9045484D01*
X10291396Y-9045484D02*
X10272348Y-9074055D01*
X10272348Y-9074055D02*
X10253301Y-9093103D01*
X10253301Y-9093103D02*
X10234253Y-9102627D01*
X10434253Y-9226436D02*
X10443777Y-9235960D01*
X10443777Y-9235960D02*
X10434253Y-9245484D01*
X10434253Y-9245484D02*
X10424729Y-9235960D01*
X10424729Y-9235960D02*
X10434253Y-9226436D01*
X10434253Y-9226436D02*
X10434253Y-9245484D01*
X10634253Y-9245484D02*
X10519967Y-9245484D01*
X10577110Y-9245484D02*
X10577110Y-9045484D01*
X10577110Y-9045484D02*
X10558063Y-9074055D01*
X10558063Y-9074055D02*
X10539015Y-9093103D01*
X10539015Y-9093103D02*
X10519967Y-9102627D01*
X10758063Y-9045484D02*
X10777110Y-9045484D01*
X10777110Y-9045484D02*
X10796158Y-9055008D01*
X10796158Y-9055008D02*
X10805682Y-9064531D01*
X10805682Y-9064531D02*
X10815205Y-9083579D01*
X10815205Y-9083579D02*
X10824729Y-9121674D01*
X10824729Y-9121674D02*
X10824729Y-9169293D01*
X10824729Y-9169293D02*
X10815205Y-9207389D01*
X10815205Y-9207389D02*
X10805682Y-9226436D01*
X10805682Y-9226436D02*
X10796158Y-9235960D01*
X10796158Y-9235960D02*
X10777110Y-9245484D01*
X10777110Y-9245484D02*
X10758063Y-9245484D01*
X10758063Y-9245484D02*
X10739015Y-9235960D01*
X10739015Y-9235960D02*
X10729491Y-9226436D01*
X10729491Y-9226436D02*
X10719967Y-9207389D01*
X10719967Y-9207389D02*
X10710444Y-9169293D01*
X10710444Y-9169293D02*
X10710444Y-9121674D01*
X10710444Y-9121674D02*
X10719967Y-9083579D01*
X10719967Y-9083579D02*
X10729491Y-9064531D01*
X10729491Y-9064531D02*
X10739015Y-9055008D01*
X10739015Y-9055008D02*
X10758063Y-9045484D01*
X10948539Y-9045484D02*
X10967586Y-9045484D01*
X10967586Y-9045484D02*
X10986634Y-9055008D01*
X10986634Y-9055008D02*
X10996158Y-9064531D01*
X10996158Y-9064531D02*
X11005682Y-9083579D01*
X11005682Y-9083579D02*
X11015205Y-9121674D01*
X11015205Y-9121674D02*
X11015205Y-9169293D01*
X11015205Y-9169293D02*
X11005682Y-9207389D01*
X11005682Y-9207389D02*
X10996158Y-9226436D01*
X10996158Y-9226436D02*
X10986634Y-9235960D01*
X10986634Y-9235960D02*
X10967586Y-9245484D01*
X10967586Y-9245484D02*
X10948539Y-9245484D01*
X10948539Y-9245484D02*
X10929491Y-9235960D01*
X10929491Y-9235960D02*
X10919967Y-9226436D01*
X10919967Y-9226436D02*
X10910444Y-9207389D01*
X10910444Y-9207389D02*
X10900920Y-9169293D01*
X10900920Y-9169293D02*
X10900920Y-9121674D01*
X10900920Y-9121674D02*
X10910444Y-9083579D01*
X10910444Y-9083579D02*
X10919967Y-9064531D01*
X10919967Y-9064531D02*
X10929491Y-9055008D01*
X10929491Y-9055008D02*
X10948539Y-9045484D01*
X11100920Y-9245484D02*
X11100920Y-9112150D01*
X11100920Y-9131198D02*
X11110444Y-9121674D01*
X11110444Y-9121674D02*
X11129491Y-9112150D01*
X11129491Y-9112150D02*
X11158063Y-9112150D01*
X11158063Y-9112150D02*
X11177110Y-9121674D01*
X11177110Y-9121674D02*
X11186634Y-9140722D01*
X11186634Y-9140722D02*
X11186634Y-9245484D01*
X11186634Y-9140722D02*
X11196158Y-9121674D01*
X11196158Y-9121674D02*
X11215205Y-9112150D01*
X11215205Y-9112150D02*
X11243777Y-9112150D01*
X11243777Y-9112150D02*
X11262824Y-9121674D01*
X11262824Y-9121674D02*
X11272348Y-9140722D01*
X11272348Y-9140722D02*
X11272348Y-9245484D01*
X11367586Y-9245484D02*
X11367586Y-9112150D01*
X11367586Y-9131198D02*
X11377110Y-9121674D01*
X11377110Y-9121674D02*
X11396158Y-9112150D01*
X11396158Y-9112150D02*
X11424729Y-9112150D01*
X11424729Y-9112150D02*
X11443777Y-9121674D01*
X11443777Y-9121674D02*
X11453301Y-9140722D01*
X11453301Y-9140722D02*
X11453301Y-9245484D01*
X11453301Y-9140722D02*
X11462824Y-9121674D01*
X11462824Y-9121674D02*
X11481872Y-9112150D01*
X11481872Y-9112150D02*
X11510443Y-9112150D01*
X11510443Y-9112150D02*
X11529491Y-9121674D01*
X11529491Y-9121674D02*
X11539015Y-9140722D01*
X11539015Y-9140722D02*
X11539015Y-9245484D01*
X11929491Y-9035960D02*
X11758063Y-9293103D01*
X12186634Y-9045484D02*
X12205682Y-9045484D01*
X12205682Y-9045484D02*
X12224729Y-9055008D01*
X12224729Y-9055008D02*
X12234253Y-9064531D01*
X12234253Y-9064531D02*
X12243777Y-9083579D01*
X12243777Y-9083579D02*
X12253301Y-9121674D01*
X12253301Y-9121674D02*
X12253301Y-9169293D01*
X12253301Y-9169293D02*
X12243777Y-9207389D01*
X12243777Y-9207389D02*
X12234253Y-9226436D01*
X12234253Y-9226436D02*
X12224729Y-9235960D01*
X12224729Y-9235960D02*
X12205682Y-9245484D01*
X12205682Y-9245484D02*
X12186634Y-9245484D01*
X12186634Y-9245484D02*
X12167586Y-9235960D01*
X12167586Y-9235960D02*
X12158063Y-9226436D01*
X12158063Y-9226436D02*
X12148539Y-9207389D01*
X12148539Y-9207389D02*
X12139015Y-9169293D01*
X12139015Y-9169293D02*
X12139015Y-9121674D01*
X12139015Y-9121674D02*
X12148539Y-9083579D01*
X12148539Y-9083579D02*
X12158063Y-9064531D01*
X12158063Y-9064531D02*
X12167586Y-9055008D01*
X12167586Y-9055008D02*
X12186634Y-9045484D01*
X12339015Y-9226436D02*
X12348539Y-9235960D01*
X12348539Y-9235960D02*
X12339015Y-9245484D01*
X12339015Y-9245484D02*
X12329491Y-9235960D01*
X12329491Y-9235960D02*
X12339015Y-9226436D01*
X12339015Y-9226436D02*
X12339015Y-9245484D01*
X12472348Y-9045484D02*
X12491396Y-9045484D01*
X12491396Y-9045484D02*
X12510444Y-9055008D01*
X12510444Y-9055008D02*
X12519967Y-9064531D01*
X12519967Y-9064531D02*
X12529491Y-9083579D01*
X12529491Y-9083579D02*
X12539015Y-9121674D01*
X12539015Y-9121674D02*
X12539015Y-9169293D01*
X12539015Y-9169293D02*
X12529491Y-9207389D01*
X12529491Y-9207389D02*
X12519967Y-9226436D01*
X12519967Y-9226436D02*
X12510444Y-9235960D01*
X12510444Y-9235960D02*
X12491396Y-9245484D01*
X12491396Y-9245484D02*
X12472348Y-9245484D01*
X12472348Y-9245484D02*
X12453301Y-9235960D01*
X12453301Y-9235960D02*
X12443777Y-9226436D01*
X12443777Y-9226436D02*
X12434253Y-9207389D01*
X12434253Y-9207389D02*
X12424729Y-9169293D01*
X12424729Y-9169293D02*
X12424729Y-9121674D01*
X12424729Y-9121674D02*
X12434253Y-9083579D01*
X12434253Y-9083579D02*
X12443777Y-9064531D01*
X12443777Y-9064531D02*
X12453301Y-9055008D01*
X12453301Y-9055008D02*
X12472348Y-9045484D01*
X12710444Y-9112150D02*
X12710444Y-9245484D01*
X12662825Y-9035960D02*
X12615206Y-9178817D01*
X12615206Y-9178817D02*
X12739015Y-9178817D01*
X12796158Y-9045484D02*
X12919967Y-9045484D01*
X12919967Y-9045484D02*
X12853301Y-9121674D01*
X12853301Y-9121674D02*
X12881872Y-9121674D01*
X12881872Y-9121674D02*
X12900920Y-9131198D01*
X12900920Y-9131198D02*
X12910444Y-9140722D01*
X12910444Y-9140722D02*
X12919967Y-9159770D01*
X12919967Y-9159770D02*
X12919967Y-9207389D01*
X12919967Y-9207389D02*
X12910444Y-9226436D01*
X12910444Y-9226436D02*
X12900920Y-9235960D01*
X12900920Y-9235960D02*
X12881872Y-9245484D01*
X12881872Y-9245484D02*
X12824729Y-9245484D01*
X12824729Y-9245484D02*
X12805682Y-9235960D01*
X12805682Y-9235960D02*
X12796158Y-9226436D01*
X12986634Y-9045484D02*
X13110444Y-9045484D01*
X13110444Y-9045484D02*
X13043777Y-9121674D01*
X13043777Y-9121674D02*
X13072348Y-9121674D01*
X13072348Y-9121674D02*
X13091396Y-9131198D01*
X13091396Y-9131198D02*
X13100920Y-9140722D01*
X13100920Y-9140722D02*
X13110444Y-9159770D01*
X13110444Y-9159770D02*
X13110444Y-9207389D01*
X13110444Y-9207389D02*
X13100920Y-9226436D01*
X13100920Y-9226436D02*
X13091396Y-9235960D01*
X13091396Y-9235960D02*
X13072348Y-9245484D01*
X13072348Y-9245484D02*
X13015206Y-9245484D01*
X13015206Y-9245484D02*
X12996158Y-9235960D01*
X12996158Y-9235960D02*
X12986634Y-9226436D01*
X13186634Y-9045484D02*
X13186634Y-9083579D01*
X13262825Y-9045484D02*
X13262825Y-9083579D01*
X13558063Y-9321674D02*
X13548539Y-9312150D01*
X13548539Y-9312150D02*
X13529491Y-9283579D01*
X13529491Y-9283579D02*
X13519968Y-9264531D01*
X13519968Y-9264531D02*
X13510444Y-9235960D01*
X13510444Y-9235960D02*
X13500920Y-9188341D01*
X13500920Y-9188341D02*
X13500920Y-9150246D01*
X13500920Y-9150246D02*
X13510444Y-9102627D01*
X13510444Y-9102627D02*
X13519968Y-9074055D01*
X13519968Y-9074055D02*
X13529491Y-9055008D01*
X13529491Y-9055008D02*
X13548539Y-9026436D01*
X13548539Y-9026436D02*
X13558063Y-9016912D01*
X13615206Y-9045484D02*
X13748539Y-9045484D01*
X13748539Y-9045484D02*
X13662825Y-9245484D01*
X13977110Y-9245484D02*
X13977110Y-9045484D01*
X14062825Y-9245484D02*
X14062825Y-9140722D01*
X14062825Y-9140722D02*
X14053301Y-9121674D01*
X14053301Y-9121674D02*
X14034253Y-9112150D01*
X14034253Y-9112150D02*
X14005682Y-9112150D01*
X14005682Y-9112150D02*
X13986634Y-9121674D01*
X13986634Y-9121674D02*
X13977110Y-9131198D01*
X14186634Y-9245484D02*
X14167587Y-9235960D01*
X14167587Y-9235960D02*
X14158063Y-9226436D01*
X14158063Y-9226436D02*
X14148539Y-9207389D01*
X14148539Y-9207389D02*
X14148539Y-9150246D01*
X14148539Y-9150246D02*
X14158063Y-9131198D01*
X14158063Y-9131198D02*
X14167587Y-9121674D01*
X14167587Y-9121674D02*
X14186634Y-9112150D01*
X14186634Y-9112150D02*
X14215206Y-9112150D01*
X14215206Y-9112150D02*
X14234253Y-9121674D01*
X14234253Y-9121674D02*
X14243777Y-9131198D01*
X14243777Y-9131198D02*
X14253301Y-9150246D01*
X14253301Y-9150246D02*
X14253301Y-9207389D01*
X14253301Y-9207389D02*
X14243777Y-9226436D01*
X14243777Y-9226436D02*
X14234253Y-9235960D01*
X14234253Y-9235960D02*
X14215206Y-9245484D01*
X14215206Y-9245484D02*
X14186634Y-9245484D01*
X14367587Y-9245484D02*
X14348539Y-9235960D01*
X14348539Y-9235960D02*
X14339015Y-9216912D01*
X14339015Y-9216912D02*
X14339015Y-9045484D01*
X14519968Y-9235960D02*
X14500920Y-9245484D01*
X14500920Y-9245484D02*
X14462825Y-9245484D01*
X14462825Y-9245484D02*
X14443777Y-9235960D01*
X14443777Y-9235960D02*
X14434253Y-9216912D01*
X14434253Y-9216912D02*
X14434253Y-9140722D01*
X14434253Y-9140722D02*
X14443777Y-9121674D01*
X14443777Y-9121674D02*
X14462825Y-9112150D01*
X14462825Y-9112150D02*
X14500920Y-9112150D01*
X14500920Y-9112150D02*
X14519968Y-9121674D01*
X14519968Y-9121674D02*
X14529491Y-9140722D01*
X14529491Y-9140722D02*
X14529491Y-9159770D01*
X14529491Y-9159770D02*
X14434253Y-9178817D01*
X14605682Y-9235960D02*
X14624730Y-9245484D01*
X14624730Y-9245484D02*
X14662825Y-9245484D01*
X14662825Y-9245484D02*
X14681872Y-9235960D01*
X14681872Y-9235960D02*
X14691396Y-9216912D01*
X14691396Y-9216912D02*
X14691396Y-9207389D01*
X14691396Y-9207389D02*
X14681872Y-9188341D01*
X14681872Y-9188341D02*
X14662825Y-9178817D01*
X14662825Y-9178817D02*
X14634253Y-9178817D01*
X14634253Y-9178817D02*
X14615206Y-9169293D01*
X14615206Y-9169293D02*
X14605682Y-9150246D01*
X14605682Y-9150246D02*
X14605682Y-9140722D01*
X14605682Y-9140722D02*
X14615206Y-9121674D01*
X14615206Y-9121674D02*
X14634253Y-9112150D01*
X14634253Y-9112150D02*
X14662825Y-9112150D01*
X14662825Y-9112150D02*
X14681872Y-9121674D01*
X14758063Y-9321674D02*
X14767587Y-9312150D01*
X14767587Y-9312150D02*
X14786634Y-9283579D01*
X14786634Y-9283579D02*
X14796158Y-9264531D01*
X14796158Y-9264531D02*
X14805682Y-9235960D01*
X14805682Y-9235960D02*
X14815206Y-9188341D01*
X14815206Y-9188341D02*
X14815206Y-9150246D01*
X14815206Y-9150246D02*
X14805682Y-9102627D01*
X14805682Y-9102627D02*
X14796158Y-9074055D01*
X14796158Y-9074055D02*
X14786634Y-9055008D01*
X14786634Y-9055008D02*
X14767587Y-9026436D01*
X14767587Y-9026436D02*
X14758063Y-9016912D01*
M02*
