%TF.GenerationSoftware,KiCad,Pcbnew,8.0.0*%
%TF.CreationDate,2024-03-10T03:06:54-05:00*%
%TF.ProjectId,Flashlight,466c6173-686c-4696-9768-742e6b696361,1.0*%
%TF.SameCoordinates,Original*%
%TF.FileFunction,Legend,Top*%
%TF.FilePolarity,Positive*%
%FSLAX46Y46*%
G04 Gerber Fmt 4.6, Leading zero omitted, Abs format (unit mm)*
G04 Created by KiCad (PCBNEW 8.0.0) date 2024-03-10 03:06:54*
%MOMM*%
%LPD*%
G01*
G04 APERTURE LIST*
%ADD10C,0.254000*%
%ADD11C,0.150000*%
%ADD12C,0.200000*%
%ADD13C,0.100000*%
%ADD14C,0.120000*%
%ADD15C,0.210000*%
G04 APERTURE END LIST*
D10*
X107257856Y-71974318D02*
X107257856Y-70704318D01*
X107257856Y-70704318D02*
X107741666Y-70704318D01*
X107741666Y-70704318D02*
X107862618Y-70764794D01*
X107862618Y-70764794D02*
X107923095Y-70825270D01*
X107923095Y-70825270D02*
X107983571Y-70946222D01*
X107983571Y-70946222D02*
X107983571Y-71127651D01*
X107983571Y-71127651D02*
X107923095Y-71248603D01*
X107923095Y-71248603D02*
X107862618Y-71309080D01*
X107862618Y-71309080D02*
X107741666Y-71369556D01*
X107741666Y-71369556D02*
X107257856Y-71369556D01*
X108467380Y-71913842D02*
X108648809Y-71974318D01*
X108648809Y-71974318D02*
X108951190Y-71974318D01*
X108951190Y-71974318D02*
X109072142Y-71913842D01*
X109072142Y-71913842D02*
X109132618Y-71853365D01*
X109132618Y-71853365D02*
X109193095Y-71732413D01*
X109193095Y-71732413D02*
X109193095Y-71611461D01*
X109193095Y-71611461D02*
X109132618Y-71490508D01*
X109132618Y-71490508D02*
X109072142Y-71430032D01*
X109072142Y-71430032D02*
X108951190Y-71369556D01*
X108951190Y-71369556D02*
X108709285Y-71309080D01*
X108709285Y-71309080D02*
X108588333Y-71248603D01*
X108588333Y-71248603D02*
X108527856Y-71188127D01*
X108527856Y-71188127D02*
X108467380Y-71067175D01*
X108467380Y-71067175D02*
X108467380Y-70946222D01*
X108467380Y-70946222D02*
X108527856Y-70825270D01*
X108527856Y-70825270D02*
X108588333Y-70764794D01*
X108588333Y-70764794D02*
X108709285Y-70704318D01*
X108709285Y-70704318D02*
X109011666Y-70704318D01*
X109011666Y-70704318D02*
X109193095Y-70764794D01*
X110402619Y-71974318D02*
X109676904Y-71974318D01*
X110039761Y-71974318D02*
X110039761Y-70704318D01*
X110039761Y-70704318D02*
X109918809Y-70885746D01*
X109918809Y-70885746D02*
X109797857Y-71006699D01*
X109797857Y-71006699D02*
X109676904Y-71067175D01*
X113403333Y-62074318D02*
X112798571Y-62074318D01*
X112798571Y-62074318D02*
X112798571Y-60804318D01*
X114491905Y-62074318D02*
X113766190Y-62074318D01*
X114129047Y-62074318D02*
X114129047Y-60804318D01*
X114129047Y-60804318D02*
X114008095Y-60985746D01*
X114008095Y-60985746D02*
X113887143Y-61106699D01*
X113887143Y-61106699D02*
X113766190Y-61167175D01*
X114462618Y-68474318D02*
X114462618Y-67204318D01*
X114462618Y-67204318D02*
X114764999Y-67204318D01*
X114764999Y-67204318D02*
X114946428Y-67264794D01*
X114946428Y-67264794D02*
X115067380Y-67385746D01*
X115067380Y-67385746D02*
X115127857Y-67506699D01*
X115127857Y-67506699D02*
X115188333Y-67748603D01*
X115188333Y-67748603D02*
X115188333Y-67930032D01*
X115188333Y-67930032D02*
X115127857Y-68171937D01*
X115127857Y-68171937D02*
X115067380Y-68292889D01*
X115067380Y-68292889D02*
X114946428Y-68413842D01*
X114946428Y-68413842D02*
X114764999Y-68474318D01*
X114764999Y-68474318D02*
X114462618Y-68474318D01*
X116397857Y-68474318D02*
X115672142Y-68474318D01*
X116034999Y-68474318D02*
X116034999Y-67204318D01*
X116034999Y-67204318D02*
X115914047Y-67385746D01*
X115914047Y-67385746D02*
X115793095Y-67506699D01*
X115793095Y-67506699D02*
X115672142Y-67567175D01*
X111368333Y-75153365D02*
X111307857Y-75213842D01*
X111307857Y-75213842D02*
X111126428Y-75274318D01*
X111126428Y-75274318D02*
X111005476Y-75274318D01*
X111005476Y-75274318D02*
X110824047Y-75213842D01*
X110824047Y-75213842D02*
X110703095Y-75092889D01*
X110703095Y-75092889D02*
X110642618Y-74971937D01*
X110642618Y-74971937D02*
X110582142Y-74730032D01*
X110582142Y-74730032D02*
X110582142Y-74548603D01*
X110582142Y-74548603D02*
X110642618Y-74306699D01*
X110642618Y-74306699D02*
X110703095Y-74185746D01*
X110703095Y-74185746D02*
X110824047Y-74064794D01*
X110824047Y-74064794D02*
X111005476Y-74004318D01*
X111005476Y-74004318D02*
X111126428Y-74004318D01*
X111126428Y-74004318D02*
X111307857Y-74064794D01*
X111307857Y-74064794D02*
X111368333Y-74125270D01*
X111852142Y-74125270D02*
X111912618Y-74064794D01*
X111912618Y-74064794D02*
X112033571Y-74004318D01*
X112033571Y-74004318D02*
X112335952Y-74004318D01*
X112335952Y-74004318D02*
X112456904Y-74064794D01*
X112456904Y-74064794D02*
X112517380Y-74125270D01*
X112517380Y-74125270D02*
X112577857Y-74246222D01*
X112577857Y-74246222D02*
X112577857Y-74367175D01*
X112577857Y-74367175D02*
X112517380Y-74548603D01*
X112517380Y-74548603D02*
X111791666Y-75274318D01*
X111791666Y-75274318D02*
X112577857Y-75274318D01*
X117888333Y-64353365D02*
X117827857Y-64413842D01*
X117827857Y-64413842D02*
X117646428Y-64474318D01*
X117646428Y-64474318D02*
X117525476Y-64474318D01*
X117525476Y-64474318D02*
X117344047Y-64413842D01*
X117344047Y-64413842D02*
X117223095Y-64292889D01*
X117223095Y-64292889D02*
X117162618Y-64171937D01*
X117162618Y-64171937D02*
X117102142Y-63930032D01*
X117102142Y-63930032D02*
X117102142Y-63748603D01*
X117102142Y-63748603D02*
X117162618Y-63506699D01*
X117162618Y-63506699D02*
X117223095Y-63385746D01*
X117223095Y-63385746D02*
X117344047Y-63264794D01*
X117344047Y-63264794D02*
X117525476Y-63204318D01*
X117525476Y-63204318D02*
X117646428Y-63204318D01*
X117646428Y-63204318D02*
X117827857Y-63264794D01*
X117827857Y-63264794D02*
X117888333Y-63325270D01*
X119097857Y-64474318D02*
X118372142Y-64474318D01*
X118734999Y-64474318D02*
X118734999Y-63204318D01*
X118734999Y-63204318D02*
X118614047Y-63385746D01*
X118614047Y-63385746D02*
X118493095Y-63506699D01*
X118493095Y-63506699D02*
X118372142Y-63567175D01*
D11*
X114374285Y-78991009D02*
X114517142Y-79038628D01*
X114517142Y-79038628D02*
X114564761Y-79086247D01*
X114564761Y-79086247D02*
X114612380Y-79181485D01*
X114612380Y-79181485D02*
X114612380Y-79324342D01*
X114612380Y-79324342D02*
X114564761Y-79419580D01*
X114564761Y-79419580D02*
X114517142Y-79467200D01*
X114517142Y-79467200D02*
X114421904Y-79514819D01*
X114421904Y-79514819D02*
X114040952Y-79514819D01*
X114040952Y-79514819D02*
X114040952Y-78514819D01*
X114040952Y-78514819D02*
X114374285Y-78514819D01*
X114374285Y-78514819D02*
X114469523Y-78562438D01*
X114469523Y-78562438D02*
X114517142Y-78610057D01*
X114517142Y-78610057D02*
X114564761Y-78705295D01*
X114564761Y-78705295D02*
X114564761Y-78800533D01*
X114564761Y-78800533D02*
X114517142Y-78895771D01*
X114517142Y-78895771D02*
X114469523Y-78943390D01*
X114469523Y-78943390D02*
X114374285Y-78991009D01*
X114374285Y-78991009D02*
X114040952Y-78991009D01*
X114898095Y-78514819D02*
X115469523Y-78514819D01*
X115183809Y-79514819D02*
X115183809Y-78514819D01*
X116326666Y-79514819D02*
X115755238Y-79514819D01*
X116040952Y-79514819D02*
X116040952Y-78514819D01*
X116040952Y-78514819D02*
X115945714Y-78657676D01*
X115945714Y-78657676D02*
X115850476Y-78752914D01*
X115850476Y-78752914D02*
X115755238Y-78800533D01*
X104516864Y-75254883D02*
X104595690Y-75383188D01*
X104595690Y-75383188D02*
X104778082Y-75536233D01*
X104778082Y-75536233D02*
X104881647Y-75560972D01*
X104881647Y-75560972D02*
X104948735Y-75555103D01*
X104948735Y-75555103D02*
X105046431Y-75512755D01*
X105046431Y-75512755D02*
X105107649Y-75439799D01*
X105107649Y-75439799D02*
X105132388Y-75336233D01*
X105132388Y-75336233D02*
X105126519Y-75269146D01*
X105126519Y-75269146D02*
X105084171Y-75171450D01*
X105084171Y-75171450D02*
X104968867Y-75012536D01*
X104968867Y-75012536D02*
X104926519Y-74914839D01*
X104926519Y-74914839D02*
X104920650Y-74847752D01*
X104920650Y-74847752D02*
X104945389Y-74744187D01*
X104945389Y-74744187D02*
X105006607Y-74671230D01*
X105006607Y-74671230D02*
X105104303Y-74628882D01*
X105104303Y-74628882D02*
X105171391Y-74623013D01*
X105171391Y-74623013D02*
X105274956Y-74647753D01*
X105274956Y-74647753D02*
X105457348Y-74800797D01*
X105457348Y-74800797D02*
X105536174Y-74929102D01*
X105822131Y-75106887D02*
X105361735Y-76025976D01*
X105361735Y-76025976D02*
X105966782Y-75601237D01*
X105966782Y-75601237D02*
X105653561Y-76270847D01*
X105653561Y-76270847D02*
X106478740Y-75657847D01*
X106672870Y-75945066D02*
X106739958Y-75939197D01*
X106739958Y-75939197D02*
X106843523Y-75963937D01*
X106843523Y-75963937D02*
X107025915Y-76116981D01*
X107025915Y-76116981D02*
X107068262Y-76214678D01*
X107068262Y-76214678D02*
X107074132Y-76281765D01*
X107074132Y-76281765D02*
X107049392Y-76385330D01*
X107049392Y-76385330D02*
X106988174Y-76458287D01*
X106988174Y-76458287D02*
X106859869Y-76537113D01*
X106859869Y-76537113D02*
X106054822Y-76607545D01*
X106054822Y-76607545D02*
X106529040Y-77005462D01*
X126791235Y-73158301D02*
X126903903Y-73058392D01*
X126903903Y-73058392D02*
X127022950Y-72852196D01*
X127022950Y-72852196D02*
X127029330Y-72745908D01*
X127029330Y-72745908D02*
X127011900Y-72680859D01*
X127011900Y-72680859D02*
X126953231Y-72592000D01*
X126953231Y-72592000D02*
X126870752Y-72544381D01*
X126870752Y-72544381D02*
X126764464Y-72538002D01*
X126764464Y-72538002D02*
X126699415Y-72555431D01*
X126699415Y-72555431D02*
X126610557Y-72614100D01*
X126610557Y-72614100D02*
X126474080Y-72755248D01*
X126474080Y-72755248D02*
X126385221Y-72813917D01*
X126385221Y-72813917D02*
X126320173Y-72831347D01*
X126320173Y-72831347D02*
X126213884Y-72824967D01*
X126213884Y-72824967D02*
X126131406Y-72777348D01*
X126131406Y-72777348D02*
X126072737Y-72688490D01*
X126072737Y-72688490D02*
X126055307Y-72623441D01*
X126055307Y-72623441D02*
X126061687Y-72517153D01*
X126061687Y-72517153D02*
X126180734Y-72310956D01*
X126180734Y-72310956D02*
X126293402Y-72211048D01*
X126418830Y-71898563D02*
X127403903Y-72192367D01*
X127403903Y-72192367D02*
X126880551Y-71670267D01*
X126880551Y-71670267D02*
X127594379Y-71862452D01*
X127594379Y-71862452D02*
X126847401Y-71156256D01*
X128165807Y-70872709D02*
X127880093Y-71367581D01*
X128022950Y-71120145D02*
X127156925Y-70620145D01*
X127156925Y-70620145D02*
X127233024Y-70774052D01*
X127233024Y-70774052D02*
X127267883Y-70904150D01*
X127267883Y-70904150D02*
X127261503Y-71010438D01*
X103057201Y-66133332D02*
X103104820Y-65990475D01*
X103104820Y-65990475D02*
X103104820Y-65752380D01*
X103104820Y-65752380D02*
X103057201Y-65657142D01*
X103057201Y-65657142D02*
X103009581Y-65609523D01*
X103009581Y-65609523D02*
X102914343Y-65561904D01*
X102914343Y-65561904D02*
X102819105Y-65561904D01*
X102819105Y-65561904D02*
X102723867Y-65609523D01*
X102723867Y-65609523D02*
X102676248Y-65657142D01*
X102676248Y-65657142D02*
X102628629Y-65752380D01*
X102628629Y-65752380D02*
X102581010Y-65942856D01*
X102581010Y-65942856D02*
X102533391Y-66038094D01*
X102533391Y-66038094D02*
X102485772Y-66085713D01*
X102485772Y-66085713D02*
X102390534Y-66133332D01*
X102390534Y-66133332D02*
X102295296Y-66133332D01*
X102295296Y-66133332D02*
X102200058Y-66085713D01*
X102200058Y-66085713D02*
X102152439Y-66038094D01*
X102152439Y-66038094D02*
X102104820Y-65942856D01*
X102104820Y-65942856D02*
X102104820Y-65704761D01*
X102104820Y-65704761D02*
X102152439Y-65561904D01*
X102104820Y-65228570D02*
X103104820Y-64990475D01*
X103104820Y-64990475D02*
X102390534Y-64799999D01*
X102390534Y-64799999D02*
X103104820Y-64609523D01*
X103104820Y-64609523D02*
X102104820Y-64371428D01*
X102104820Y-64085713D02*
X102104820Y-63466666D01*
X102104820Y-63466666D02*
X102485772Y-63799999D01*
X102485772Y-63799999D02*
X102485772Y-63657142D01*
X102485772Y-63657142D02*
X102533391Y-63561904D01*
X102533391Y-63561904D02*
X102581010Y-63514285D01*
X102581010Y-63514285D02*
X102676248Y-63466666D01*
X102676248Y-63466666D02*
X102914343Y-63466666D01*
X102914343Y-63466666D02*
X103009581Y-63514285D01*
X103009581Y-63514285D02*
X103057201Y-63561904D01*
X103057201Y-63561904D02*
X103104820Y-63657142D01*
X103104820Y-63657142D02*
X103104820Y-63942856D01*
X103104820Y-63942856D02*
X103057201Y-64038094D01*
X103057201Y-64038094D02*
X103009581Y-64085713D01*
X107533333Y-69554819D02*
X107200000Y-69078628D01*
X106961905Y-69554819D02*
X106961905Y-68554819D01*
X106961905Y-68554819D02*
X107342857Y-68554819D01*
X107342857Y-68554819D02*
X107438095Y-68602438D01*
X107438095Y-68602438D02*
X107485714Y-68650057D01*
X107485714Y-68650057D02*
X107533333Y-68745295D01*
X107533333Y-68745295D02*
X107533333Y-68888152D01*
X107533333Y-68888152D02*
X107485714Y-68983390D01*
X107485714Y-68983390D02*
X107438095Y-69031009D01*
X107438095Y-69031009D02*
X107342857Y-69078628D01*
X107342857Y-69078628D02*
X106961905Y-69078628D01*
X108485714Y-69554819D02*
X107914286Y-69554819D01*
X108200000Y-69554819D02*
X108200000Y-68554819D01*
X108200000Y-68554819D02*
X108104762Y-68697676D01*
X108104762Y-68697676D02*
X108009524Y-68792914D01*
X108009524Y-68792914D02*
X107914286Y-68840533D01*
X107354819Y-59866666D02*
X106878628Y-60199999D01*
X107354819Y-60438094D02*
X106354819Y-60438094D01*
X106354819Y-60438094D02*
X106354819Y-60057142D01*
X106354819Y-60057142D02*
X106402438Y-59961904D01*
X106402438Y-59961904D02*
X106450057Y-59914285D01*
X106450057Y-59914285D02*
X106545295Y-59866666D01*
X106545295Y-59866666D02*
X106688152Y-59866666D01*
X106688152Y-59866666D02*
X106783390Y-59914285D01*
X106783390Y-59914285D02*
X106831009Y-59961904D01*
X106831009Y-59961904D02*
X106878628Y-60057142D01*
X106878628Y-60057142D02*
X106878628Y-60438094D01*
X106450057Y-59485713D02*
X106402438Y-59438094D01*
X106402438Y-59438094D02*
X106354819Y-59342856D01*
X106354819Y-59342856D02*
X106354819Y-59104761D01*
X106354819Y-59104761D02*
X106402438Y-59009523D01*
X106402438Y-59009523D02*
X106450057Y-58961904D01*
X106450057Y-58961904D02*
X106545295Y-58914285D01*
X106545295Y-58914285D02*
X106640533Y-58914285D01*
X106640533Y-58914285D02*
X106783390Y-58961904D01*
X106783390Y-58961904D02*
X107354819Y-59533332D01*
X107354819Y-59533332D02*
X107354819Y-58914285D01*
D10*
X119074319Y-74821189D02*
X119074319Y-75425951D01*
X119074319Y-75425951D02*
X117804319Y-75425951D01*
X118409081Y-74397856D02*
X118409081Y-73974522D01*
X119074319Y-73793094D02*
X119074319Y-74397856D01*
X119074319Y-74397856D02*
X117804319Y-74397856D01*
X117804319Y-74397856D02*
X117804319Y-73793094D01*
X119074319Y-73248808D02*
X117804319Y-73248808D01*
X117804319Y-73248808D02*
X117804319Y-72946427D01*
X117804319Y-72946427D02*
X117864795Y-72764998D01*
X117864795Y-72764998D02*
X117985747Y-72644046D01*
X117985747Y-72644046D02*
X118106700Y-72583569D01*
X118106700Y-72583569D02*
X118348604Y-72523093D01*
X118348604Y-72523093D02*
X118530033Y-72523093D01*
X118530033Y-72523093D02*
X118771938Y-72583569D01*
X118771938Y-72583569D02*
X118892890Y-72644046D01*
X118892890Y-72644046D02*
X119013843Y-72764998D01*
X119013843Y-72764998D02*
X119074319Y-72946427D01*
X119074319Y-72946427D02*
X119074319Y-73248808D01*
X119074319Y-71313569D02*
X119074319Y-72039284D01*
X119074319Y-71676427D02*
X117804319Y-71676427D01*
X117804319Y-71676427D02*
X117985747Y-71797379D01*
X117985747Y-71797379D02*
X118106700Y-71918331D01*
X118106700Y-71918331D02*
X118167176Y-72039284D01*
X110974318Y-66021190D02*
X110974318Y-66625952D01*
X110974318Y-66625952D02*
X109704318Y-66625952D01*
X110309080Y-65597857D02*
X110309080Y-65174523D01*
X110974318Y-64993095D02*
X110974318Y-65597857D01*
X110974318Y-65597857D02*
X109704318Y-65597857D01*
X109704318Y-65597857D02*
X109704318Y-64993095D01*
X110974318Y-64448809D02*
X109704318Y-64448809D01*
X109704318Y-64448809D02*
X109704318Y-64146428D01*
X109704318Y-64146428D02*
X109764794Y-63964999D01*
X109764794Y-63964999D02*
X109885746Y-63844047D01*
X109885746Y-63844047D02*
X110006699Y-63783570D01*
X110006699Y-63783570D02*
X110248603Y-63723094D01*
X110248603Y-63723094D02*
X110430032Y-63723094D01*
X110430032Y-63723094D02*
X110671937Y-63783570D01*
X110671937Y-63783570D02*
X110792889Y-63844047D01*
X110792889Y-63844047D02*
X110913842Y-63964999D01*
X110913842Y-63964999D02*
X110974318Y-64146428D01*
X110974318Y-64146428D02*
X110974318Y-64448809D01*
X110127651Y-62634523D02*
X110974318Y-62634523D01*
X109643842Y-62936904D02*
X110550984Y-63239285D01*
X110550984Y-63239285D02*
X110550984Y-62453094D01*
X113078809Y-59874318D02*
X112474047Y-59874318D01*
X112474047Y-59874318D02*
X112474047Y-58604318D01*
X113502142Y-59209080D02*
X113925476Y-59209080D01*
X114106904Y-59874318D02*
X113502142Y-59874318D01*
X113502142Y-59874318D02*
X113502142Y-58604318D01*
X113502142Y-58604318D02*
X114106904Y-58604318D01*
X114651190Y-59874318D02*
X114651190Y-58604318D01*
X114651190Y-58604318D02*
X114953571Y-58604318D01*
X114953571Y-58604318D02*
X115135000Y-58664794D01*
X115135000Y-58664794D02*
X115255952Y-58785746D01*
X115255952Y-58785746D02*
X115316429Y-58906699D01*
X115316429Y-58906699D02*
X115376905Y-59148603D01*
X115376905Y-59148603D02*
X115376905Y-59330032D01*
X115376905Y-59330032D02*
X115316429Y-59571937D01*
X115316429Y-59571937D02*
X115255952Y-59692889D01*
X115255952Y-59692889D02*
X115135000Y-59813842D01*
X115135000Y-59813842D02*
X114953571Y-59874318D01*
X114953571Y-59874318D02*
X114651190Y-59874318D01*
X115860714Y-58725270D02*
X115921190Y-58664794D01*
X115921190Y-58664794D02*
X116042143Y-58604318D01*
X116042143Y-58604318D02*
X116344524Y-58604318D01*
X116344524Y-58604318D02*
X116465476Y-58664794D01*
X116465476Y-58664794D02*
X116525952Y-58725270D01*
X116525952Y-58725270D02*
X116586429Y-58846222D01*
X116586429Y-58846222D02*
X116586429Y-58967175D01*
X116586429Y-58967175D02*
X116525952Y-59148603D01*
X116525952Y-59148603D02*
X115800238Y-59874318D01*
X115800238Y-59874318D02*
X116586429Y-59874318D01*
X120378809Y-62074318D02*
X119774047Y-62074318D01*
X119774047Y-62074318D02*
X119774047Y-60804318D01*
X120802142Y-61409080D02*
X121225476Y-61409080D01*
X121406904Y-62074318D02*
X120802142Y-62074318D01*
X120802142Y-62074318D02*
X120802142Y-60804318D01*
X120802142Y-60804318D02*
X121406904Y-60804318D01*
X121951190Y-62074318D02*
X121951190Y-60804318D01*
X121951190Y-60804318D02*
X122253571Y-60804318D01*
X122253571Y-60804318D02*
X122435000Y-60864794D01*
X122435000Y-60864794D02*
X122555952Y-60985746D01*
X122555952Y-60985746D02*
X122616429Y-61106699D01*
X122616429Y-61106699D02*
X122676905Y-61348603D01*
X122676905Y-61348603D02*
X122676905Y-61530032D01*
X122676905Y-61530032D02*
X122616429Y-61771937D01*
X122616429Y-61771937D02*
X122555952Y-61892889D01*
X122555952Y-61892889D02*
X122435000Y-62013842D01*
X122435000Y-62013842D02*
X122253571Y-62074318D01*
X122253571Y-62074318D02*
X121951190Y-62074318D01*
X123100238Y-60804318D02*
X123886429Y-60804318D01*
X123886429Y-60804318D02*
X123463095Y-61288127D01*
X123463095Y-61288127D02*
X123644524Y-61288127D01*
X123644524Y-61288127D02*
X123765476Y-61348603D01*
X123765476Y-61348603D02*
X123825952Y-61409080D01*
X123825952Y-61409080D02*
X123886429Y-61530032D01*
X123886429Y-61530032D02*
X123886429Y-61832413D01*
X123886429Y-61832413D02*
X123825952Y-61953365D01*
X123825952Y-61953365D02*
X123765476Y-62013842D01*
X123765476Y-62013842D02*
X123644524Y-62074318D01*
X123644524Y-62074318D02*
X123281667Y-62074318D01*
X123281667Y-62074318D02*
X123160714Y-62013842D01*
X123160714Y-62013842D02*
X123100238Y-61953365D01*
D12*
%TO.C,PS1*%
X112850000Y-68600000D02*
X112850000Y-69800000D01*
D13*
%TO.C,L1*%
X113815000Y-66450000D02*
X113415000Y-66450000D01*
X113815000Y-62350000D02*
X113415000Y-62350000D01*
%TO.C,D1*%
X116575000Y-70100000D02*
X114625000Y-70100000D01*
X116525000Y-68700000D02*
X114725000Y-68700000D01*
X117925000Y-69100000D02*
X117925000Y-69100000D01*
X117825000Y-69100000D02*
X117825000Y-69100000D01*
X117825000Y-69100000D02*
G75*
G02*
X117925000Y-69100000I50000J0D01*
G01*
X117925000Y-69100000D02*
G75*
G02*
X117825000Y-69100000I-50000J0D01*
G01*
D12*
%TO.C,C2*%
X111580000Y-73525000D02*
X111580000Y-72475000D01*
%TO.C,C1*%
X117575000Y-66100000D02*
X118625000Y-66100000D01*
D14*
%TO.C,SW3*%
X100730001Y-69420000D02*
X104570001Y-69420000D01*
X100730001Y-69420000D02*
X100730001Y-68170000D01*
X104570001Y-69420000D02*
X104570001Y-68170000D01*
X100730001Y-65550000D02*
X100730001Y-66650000D01*
X104570001Y-65550000D02*
X104570001Y-66650000D01*
X100730001Y-62950000D02*
X100730001Y-64050000D01*
X104570001Y-62950000D02*
X104570001Y-64050000D01*
X100730001Y-61430000D02*
X100730001Y-60180000D01*
X100730001Y-60180000D02*
X104570001Y-60180000D01*
X104570001Y-60180000D02*
X104570001Y-61430000D01*
%TO.C,R1*%
X106976263Y-67745000D02*
X108423737Y-67745000D01*
X106976263Y-70455000D02*
X108423737Y-70455000D01*
%TO.C,R2*%
X105545000Y-60423737D02*
X105545000Y-58976263D01*
X108255000Y-60423737D02*
X108255000Y-58976263D01*
%TO.C,LED1*%
D15*
X115485000Y-72700000D02*
G75*
G02*
X115275000Y-72700000I-105000J0D01*
G01*
X115275000Y-72700000D02*
G75*
G02*
X115485000Y-72700000I105000J0D01*
G01*
D14*
X117440000Y-71540000D02*
X115690000Y-71540000D01*
X113320000Y-71540000D02*
X115070000Y-71540000D01*
X117440000Y-75660000D02*
X117440000Y-71540000D01*
X115690000Y-75660000D02*
X117440000Y-75660000D01*
X115070000Y-75660000D02*
X113320000Y-75660000D01*
X113320000Y-75660000D02*
X113320000Y-71540000D01*
D13*
%TO.C,LED4*%
X109430000Y-63310000D02*
X109430000Y-66310000D01*
X106330000Y-63310000D02*
X106330000Y-66310000D01*
D12*
X107980000Y-66810000D02*
X107980000Y-66810000D01*
X107780000Y-66810000D02*
X107780000Y-66810000D01*
X107980000Y-66810000D02*
G75*
G02*
X107780000Y-66810000I-100000J0D01*
G01*
X107780000Y-66810000D02*
G75*
G02*
X107980000Y-66810000I100000J0D01*
G01*
D14*
%TO.C,LED2*%
X116440000Y-53940000D02*
X116440000Y-58060000D01*
X114690000Y-53940000D02*
X116440000Y-53940000D01*
X114070000Y-53940000D02*
X112320000Y-53940000D01*
X112320000Y-53940000D02*
X112320000Y-58060000D01*
X116440000Y-58060000D02*
X114690000Y-58060000D01*
X112320000Y-58060000D02*
X114070000Y-58060000D01*
D15*
X114485000Y-56900000D02*
G75*
G02*
X114275000Y-56900000I-105000J0D01*
G01*
X114275000Y-56900000D02*
G75*
G02*
X114485000Y-56900000I105000J0D01*
G01*
D13*
%TO.C,LED3*%
X120330000Y-66310000D02*
X120330000Y-63310000D01*
X123430000Y-66310000D02*
X123430000Y-63310000D01*
D12*
X121780000Y-62810000D02*
X121780000Y-62810000D01*
X121980000Y-62810000D02*
X121980000Y-62810000D01*
X121780000Y-62810000D02*
G75*
G02*
X121980000Y-62810000I100000J0D01*
G01*
X121980000Y-62810000D02*
G75*
G02*
X121780000Y-62810000I-100000J0D01*
G01*
%TD*%
M02*
