%TF.GenerationSoftware,KiCad,Pcbnew,8.0.0*%
%TF.CreationDate,2024-03-10T03:07:15-05:00*%
%TF.ProjectId,Flashlight,466c6173-686c-4696-9768-742e6b696361,1.0*%
%TF.SameCoordinates,Original*%
%TF.FileFunction,Drillmap*%
%TF.FilePolarity,Positive*%
%FSLAX45Y45*%
G04 Gerber Fmt 4.5, Leading zero omitted, Abs format (unit mm)*
G04 Created by KiCad (PCBNEW 8.0.0) date 2024-03-10 03:07:15*
%MOMM*%
%LPD*%
G01*
G04 APERTURE LIST*
%ADD10C,0.100000*%
%ADD11C,0.200000*%
G04 APERTURE END LIST*
D10*
X12988000Y-6481000D02*
G75*
G02*
X9988000Y-6481000I-1500000J0D01*
G01*
X9988000Y-6481000D02*
G75*
G02*
X12988000Y-6481000I1500000J0D01*
G01*
D11*
X10243777Y-8297484D02*
X10243777Y-8097484D01*
X10243777Y-8097484D02*
X10291396Y-8097484D01*
X10291396Y-8097484D02*
X10319967Y-8107008D01*
X10319967Y-8107008D02*
X10339015Y-8126055D01*
X10339015Y-8126055D02*
X10348539Y-8145103D01*
X10348539Y-8145103D02*
X10358063Y-8183198D01*
X10358063Y-8183198D02*
X10358063Y-8211769D01*
X10358063Y-8211769D02*
X10348539Y-8249865D01*
X10348539Y-8249865D02*
X10339015Y-8268912D01*
X10339015Y-8268912D02*
X10319967Y-8287960D01*
X10319967Y-8287960D02*
X10291396Y-8297484D01*
X10291396Y-8297484D02*
X10243777Y-8297484D01*
X10443777Y-8297484D02*
X10443777Y-8164150D01*
X10443777Y-8202246D02*
X10453301Y-8183198D01*
X10453301Y-8183198D02*
X10462824Y-8173674D01*
X10462824Y-8173674D02*
X10481872Y-8164150D01*
X10481872Y-8164150D02*
X10500920Y-8164150D01*
X10567586Y-8297484D02*
X10567586Y-8164150D01*
X10567586Y-8097484D02*
X10558063Y-8107008D01*
X10558063Y-8107008D02*
X10567586Y-8116531D01*
X10567586Y-8116531D02*
X10577110Y-8107008D01*
X10577110Y-8107008D02*
X10567586Y-8097484D01*
X10567586Y-8097484D02*
X10567586Y-8116531D01*
X10691396Y-8297484D02*
X10672348Y-8287960D01*
X10672348Y-8287960D02*
X10662824Y-8268912D01*
X10662824Y-8268912D02*
X10662824Y-8097484D01*
X10796158Y-8297484D02*
X10777110Y-8287960D01*
X10777110Y-8287960D02*
X10767586Y-8268912D01*
X10767586Y-8268912D02*
X10767586Y-8097484D01*
X11024729Y-8297484D02*
X11024729Y-8097484D01*
X11024729Y-8097484D02*
X11091396Y-8240341D01*
X11091396Y-8240341D02*
X11158063Y-8097484D01*
X11158063Y-8097484D02*
X11158063Y-8297484D01*
X11339015Y-8297484D02*
X11339015Y-8192722D01*
X11339015Y-8192722D02*
X11329491Y-8173674D01*
X11329491Y-8173674D02*
X11310443Y-8164150D01*
X11310443Y-8164150D02*
X11272348Y-8164150D01*
X11272348Y-8164150D02*
X11253301Y-8173674D01*
X11339015Y-8287960D02*
X11319967Y-8297484D01*
X11319967Y-8297484D02*
X11272348Y-8297484D01*
X11272348Y-8297484D02*
X11253301Y-8287960D01*
X11253301Y-8287960D02*
X11243777Y-8268912D01*
X11243777Y-8268912D02*
X11243777Y-8249865D01*
X11243777Y-8249865D02*
X11253301Y-8230817D01*
X11253301Y-8230817D02*
X11272348Y-8221293D01*
X11272348Y-8221293D02*
X11319967Y-8221293D01*
X11319967Y-8221293D02*
X11339015Y-8211769D01*
X11434253Y-8164150D02*
X11434253Y-8364150D01*
X11434253Y-8173674D02*
X11453301Y-8164150D01*
X11453301Y-8164150D02*
X11491396Y-8164150D01*
X11491396Y-8164150D02*
X11510443Y-8173674D01*
X11510443Y-8173674D02*
X11519967Y-8183198D01*
X11519967Y-8183198D02*
X11529491Y-8202246D01*
X11529491Y-8202246D02*
X11529491Y-8259388D01*
X11529491Y-8259388D02*
X11519967Y-8278436D01*
X11519967Y-8278436D02*
X11510443Y-8287960D01*
X11510443Y-8287960D02*
X11491396Y-8297484D01*
X11491396Y-8297484D02*
X11453301Y-8297484D01*
X11453301Y-8297484D02*
X11434253Y-8287960D01*
X11615205Y-8278436D02*
X11624729Y-8287960D01*
X11624729Y-8287960D02*
X11615205Y-8297484D01*
X11615205Y-8297484D02*
X11605682Y-8287960D01*
X11605682Y-8287960D02*
X11615205Y-8278436D01*
X11615205Y-8278436D02*
X11615205Y-8297484D01*
X11615205Y-8173674D02*
X11624729Y-8183198D01*
X11624729Y-8183198D02*
X11615205Y-8192722D01*
X11615205Y-8192722D02*
X11605682Y-8183198D01*
X11605682Y-8183198D02*
X11615205Y-8173674D01*
X11615205Y-8173674D02*
X11615205Y-8192722D01*
M02*
