M48
; DRILL file {KiCad 8.0.0} date 2024-03-10T03:07:11-0500
; FORMAT={-:-/ absolute / inch / decimal}
; #@! TF.CreationDate,2024-03-10T03:07:11-05:00
; #@! TF.GenerationSoftware,Kicad,Pcbnew,8.0.0
; #@! TF.FileFunction,Plated,1,2,PTH
FMAT,2
INCH
; #@! TA.AperFunction,Plated,PTH,ViaDrill
T1C0.0098
; #@! TA.AperFunction,Plated,PTH,ComponentDrill
T2C0.0236
; #@! TA.AperFunction,Plated,PTH,ComponentDrill
T3C0.0433
%
G90
G05
T1
X4.1732Y-2.2835
X4.2087Y-2.2913
X4.2087Y-2.5433
X4.2244Y-2.5591
X4.2402Y-2.5433
X4.2441Y-2.2835
X4.2559Y-2.5591
X4.2717Y-2.5433
X4.2874Y-2.5591
X4.2992Y-2.685
X4.2992Y-2.7559
X4.3071Y-2.7205
X4.3583Y-2.8583
X4.3583Y-2.8858
X4.3996Y-2.6791
X4.4528Y-2.1929
X4.4528Y-2.2165
X4.4685Y-2.7008
X4.4685Y-2.7579
X4.4724Y-2.2047
X4.4921Y-2.1929
X4.4921Y-2.2165
X4.4921Y-2.8976
X4.5118Y-2.2047
X4.5118Y-2.8858
X4.5118Y-2.9094
X4.5315Y-2.1929
X4.5315Y-2.2165
X4.5315Y-2.8976
X4.5512Y-2.2047
X4.5512Y-2.8858
X4.5512Y-2.9094
X4.5709Y-2.8976
X4.5906Y-2.8858
X4.5906Y-2.9094
X4.6063Y-2.4109
X4.6063Y-2.4528
X4.6339Y-2.5669
X4.6614Y-2.5669
X4.685Y-2.7559
X4.7008Y-2.7087
X4.7598Y-2.5433
X4.7756Y-2.5591
X4.7913Y-2.5433
X4.8071Y-2.5591
X4.8228Y-2.5433
X4.8386Y-2.5591
T2
X3.9724Y-2.4488
X3.9724Y-2.5512
X3.9724Y-2.6535
X4.1102Y-2.4488
X4.1102Y-2.5512
X4.1102Y-2.6535
T3
X4.129Y-2.8757
X4.2677Y-2.9921
X4.4331Y-3.0551
X4.6142Y-3.0551
X4.8386Y-2.9403
X4.9291Y-2.7835
X5.0197Y-2.6266
M30
