%TF.GenerationSoftware,KiCad,Pcbnew,8.0.0*%
%TF.CreationDate,2024-03-10T03:06:54-05:00*%
%TF.ProjectId,Flashlight,466c6173-686c-4696-9768-742e6b696361,1.0*%
%TF.SameCoordinates,Original*%
%TF.FileFunction,Soldermask,Bot*%
%TF.FilePolarity,Negative*%
%FSLAX46Y46*%
G04 Gerber Fmt 4.6, Leading zero omitted, Abs format (unit mm)*
G04 Created by KiCad (PCBNEW 8.0.0) date 2024-03-10 03:06:54*
%MOMM*%
%LPD*%
G01*
G04 APERTURE LIST*
G04 Aperture macros list*
%AMRoundRect*
0 Rectangle with rounded corners*
0 $1 Rounding radius*
0 $2 $3 $4 $5 $6 $7 $8 $9 X,Y pos of 4 corners*
0 Add a 4 corners polygon primitive as box body*
4,1,4,$2,$3,$4,$5,$6,$7,$8,$9,$2,$3,0*
0 Add four circle primitives for the rounded corners*
1,1,$1+$1,$2,$3*
1,1,$1+$1,$4,$5*
1,1,$1+$1,$6,$7*
1,1,$1+$1,$8,$9*
0 Add four rect primitives between the rounded corners*
20,1,$1+$1,$2,$3,$4,$5,0*
20,1,$1+$1,$4,$5,$6,$7,0*
20,1,$1+$1,$6,$7,$8,$9,0*
20,1,$1+$1,$8,$9,$2,$3,0*%
G04 Aperture macros list end*
%ADD10RoundRect,0.250001X-0.799999X-0.799999X0.799999X-0.799999X0.799999X0.799999X-0.799999X0.799999X0*%
%ADD11C,2.100000*%
%ADD12RoundRect,0.250001X-1.127064X-0.098605X0.098605X-1.127064X1.127064X0.098605X-0.098605X1.127064X0*%
%ADD13RoundRect,0.250001X0.292820X-1.092819X1.092819X0.292820X-0.292820X1.092819X-1.092819X-0.292820X0*%
%ADD14C,1.100000*%
G04 APERTURE END LIST*
D10*
%TO.C,BT1*%
X112600000Y-77600000D03*
D11*
X117200000Y-77600000D03*
%TD*%
D12*
%TO.C,SW2*%
X104876196Y-73043177D03*
D11*
X108400000Y-76000000D03*
%TD*%
%TO.C,SW1*%
X127500000Y-66716282D03*
X125200000Y-70699999D03*
D13*
X122900000Y-74683716D03*
%TD*%
D14*
%TO.C,SW3*%
X100900001Y-67400000D03*
X100900001Y-64800000D03*
X100900001Y-62200000D03*
%TD*%
G36*
X115207157Y-54315215D02*
G01*
X115845010Y-54354556D01*
X115852615Y-54355261D01*
X116486812Y-54433792D01*
X116494359Y-54434963D01*
X117122545Y-54552391D01*
X117130005Y-54554025D01*
X117749754Y-54709898D01*
X117757100Y-54711988D01*
X118366080Y-54905718D01*
X118373283Y-54908256D01*
X118969192Y-55139112D01*
X118976225Y-55142089D01*
X119556789Y-55409191D01*
X119563626Y-55412596D01*
X120126626Y-55714921D01*
X120133240Y-55718739D01*
X120676592Y-56055169D01*
X120682958Y-56059388D01*
X121204538Y-56428606D01*
X121210633Y-56433208D01*
X121708522Y-56833858D01*
X121714321Y-56838827D01*
X122186576Y-57269345D01*
X122192059Y-57274661D01*
X122636936Y-57733454D01*
X122642081Y-57739099D01*
X123057859Y-58224399D01*
X123062647Y-58230348D01*
X123447765Y-58740325D01*
X123452178Y-58746559D01*
X123805172Y-59279280D01*
X123809192Y-59285773D01*
X124128716Y-59839207D01*
X124132329Y-59845935D01*
X124417184Y-60418001D01*
X124420376Y-60424939D01*
X124669467Y-61013439D01*
X124672226Y-61020561D01*
X124884622Y-61623298D01*
X124886937Y-61630576D01*
X125061821Y-62245226D01*
X125063684Y-62252632D01*
X125200398Y-62876889D01*
X125201802Y-62884396D01*
X125299830Y-63515904D01*
X125300768Y-63523484D01*
X125359732Y-64159808D01*
X125360202Y-64167430D01*
X125379882Y-64806181D01*
X125379882Y-64813819D01*
X125360202Y-65452569D01*
X125359732Y-65460191D01*
X125300768Y-66096515D01*
X125299830Y-66104095D01*
X125201802Y-66735603D01*
X125200398Y-66743110D01*
X125063684Y-67367367D01*
X125061821Y-67374773D01*
X124886937Y-67989423D01*
X124884622Y-67996701D01*
X124672226Y-68599438D01*
X124669467Y-68606560D01*
X124420376Y-69195060D01*
X124417184Y-69201998D01*
X124132329Y-69774064D01*
X124128716Y-69780792D01*
X123809192Y-70334226D01*
X123805172Y-70340719D01*
X123452178Y-70873440D01*
X123447765Y-70879674D01*
X123062647Y-71389651D01*
X123057859Y-71395600D01*
X122642081Y-71880900D01*
X122636936Y-71886545D01*
X122192059Y-72345338D01*
X122186576Y-72350654D01*
X121714321Y-72781172D01*
X121708522Y-72786141D01*
X121210633Y-73186791D01*
X121204538Y-73191393D01*
X120682958Y-73560611D01*
X120676592Y-73564830D01*
X120133240Y-73901260D01*
X120126626Y-73905078D01*
X119563626Y-74207403D01*
X119556789Y-74210808D01*
X118976225Y-74477910D01*
X118969192Y-74480887D01*
X118373283Y-74711743D01*
X118366080Y-74714281D01*
X117757100Y-74908011D01*
X117749754Y-74910101D01*
X117130005Y-75065974D01*
X117122545Y-75067608D01*
X116494359Y-75185036D01*
X116486812Y-75186207D01*
X115852615Y-75264738D01*
X115845011Y-75265443D01*
X115207158Y-75304785D01*
X115199524Y-75305020D01*
X114560476Y-75305020D01*
X114552842Y-75304785D01*
X113914988Y-75265443D01*
X113907384Y-75264738D01*
X113273187Y-75186207D01*
X113265640Y-75185036D01*
X112637454Y-75067608D01*
X112629994Y-75065974D01*
X112010245Y-74910101D01*
X112002899Y-74908011D01*
X111393919Y-74714281D01*
X111386716Y-74711743D01*
X110790807Y-74480887D01*
X110783774Y-74477910D01*
X110203210Y-74210808D01*
X110196373Y-74207403D01*
X109633373Y-73905078D01*
X109626759Y-73901260D01*
X109083407Y-73564830D01*
X109077041Y-73560611D01*
X108555461Y-73191393D01*
X108549366Y-73186791D01*
X108051477Y-72786141D01*
X108045678Y-72781172D01*
X107573423Y-72350654D01*
X107567940Y-72345338D01*
X107123063Y-71886545D01*
X107117918Y-71880900D01*
X106702140Y-71395600D01*
X106697352Y-71389651D01*
X106312234Y-70879674D01*
X106307821Y-70873440D01*
X105954827Y-70340719D01*
X105950807Y-70334226D01*
X105631283Y-69780792D01*
X105627670Y-69774064D01*
X105342815Y-69201998D01*
X105339623Y-69195059D01*
X105209808Y-68888358D01*
X105200000Y-68840025D01*
X105200000Y-68200000D01*
X113100000Y-68200000D01*
X113100000Y-70400000D01*
X113900000Y-70400000D01*
X113900000Y-70399999D01*
X118499999Y-70399999D01*
X118500000Y-70400000D01*
X119399999Y-70400000D01*
X119400000Y-70399999D01*
X119800000Y-68500000D01*
X118999999Y-68500000D01*
X118499999Y-70399999D01*
X113900000Y-70399999D01*
X113900000Y-68200000D01*
X113100000Y-68200000D01*
X105200000Y-68200000D01*
X105200000Y-60800000D01*
X116600000Y-60800000D01*
X116600000Y-62700000D01*
X117400000Y-62700000D01*
X117400000Y-60800000D01*
X116600000Y-60800000D01*
X105200000Y-60800000D01*
X105200000Y-60779973D01*
X105209808Y-60731640D01*
X105339623Y-60424940D01*
X105342815Y-60418001D01*
X105627670Y-59845935D01*
X105631283Y-59839207D01*
X105950807Y-59285773D01*
X105954827Y-59279280D01*
X106307821Y-58746559D01*
X106312234Y-58740325D01*
X106697352Y-58230348D01*
X106702140Y-58224399D01*
X107117918Y-57739099D01*
X107123063Y-57733454D01*
X107567940Y-57274661D01*
X107573423Y-57269345D01*
X108045678Y-56838827D01*
X108051477Y-56833858D01*
X108549366Y-56433208D01*
X108555461Y-56428606D01*
X109077041Y-56059388D01*
X109083407Y-56055169D01*
X109626759Y-55718739D01*
X109633373Y-55714921D01*
X110196373Y-55412596D01*
X110203210Y-55409191D01*
X110783774Y-55142089D01*
X110790807Y-55139112D01*
X111386716Y-54908256D01*
X111393919Y-54905718D01*
X112002899Y-54711988D01*
X112010245Y-54709898D01*
X112629994Y-54554025D01*
X112637454Y-54552391D01*
X113265640Y-54434963D01*
X113273187Y-54433792D01*
X113907384Y-54355261D01*
X113914989Y-54354556D01*
X114552843Y-54315215D01*
X114560476Y-54314980D01*
X115199524Y-54314980D01*
X115207157Y-54315215D01*
G37*
M02*
